<svg xmlns="http://www.w3.org/2000/svg" width="160" height="160" viewBox="0 0 160 160" fill="none">
<path d="M71.4172 7.17516C82.9281 5.82828 94.7625 7.20953 105.625 11.2752C115.43 14.9423 124.467 20.7142 131.831 28.1642C125.533 34.4095 119.292 40.7127 113.002 46.9658C108.947 42.9892 104.222 39.6767 99.0219 37.3767C92.1125 34.2798 84.4297 32.9173 76.8781 33.4392C68.3469 33.9892 59.9859 36.9533 53.0297 41.9236C44.3984 48.0095 37.9344 57.1142 35.0922 67.2908C32.9609 74.7564 32.7844 82.7548 34.5047 90.322C35.8875 96.5111 38.5812 102.399 42.325 107.514C45.8 112.272 50.1844 116.364 55.1719 119.5C60.9203 123.131 67.4781 125.472 74.2281 126.294C80.0125 127.02 85.9312 126.642 91.5797 125.2C92.2 124.902 92.5547 125.608 92.9438 125.96C99.3094 132.358 105.706 138.725 112.073 145.12C100.619 150.683 87.7 153.224 74.9953 152.327C64.3625 151.622 53.8906 148.564 44.5719 143.392C40.6859 141.267 37.0359 138.733 33.5828 135.964C30.8547 133.65 28.1594 131.275 25.8141 128.566C21.8437 124.286 18.4375 119.486 15.6312 114.367C15.0062 113.161 14.2812 112.005 13.7719 110.742C13.0734 109.328 12.4641 107.874 11.8578 106.419C11.0828 104.345 10.2547 102.288 9.68906 100.145C9.62187 99.8626 9.44999 99.6252 9.29531 99.3876C7.99843 94.9095 7.27187 90.2736 6.88281 85.6314C6.47343 79.7939 6.67499 73.9048 7.62968 68.1267C9.53281 56.333 14.4125 45.0423 21.6703 35.558C26.3766 29.3861 32.0656 23.9627 38.4609 19.5658C48.2172 12.8298 59.6375 8.52047 71.4172 7.17516ZM79.1016 15.0627C78.2109 15.2173 77.3891 15.6502 76.6984 16.2236C75.0734 17.6189 74.4891 20.1002 75.4219 22.0486C76.4109 24.3955 79.3531 25.658 81.7281 24.7048C84.1391 23.8861 85.6 21.0314 84.8125 18.6017C84.1719 16.1908 81.5438 14.572 79.1016 15.0627ZM37.2328 32.5611C36.4 32.6048 35.5781 32.8611 34.8641 33.2923C33.0719 34.3908 32.0703 36.6892 32.6203 38.7392C33.1031 40.9392 35.2422 42.6548 37.5047 42.5845C39.8531 42.6486 42.0484 40.8048 42.4328 38.4955C42.7828 36.8814 42.1812 35.1283 41.0047 33.9877C40.0297 32.9986 38.6141 32.4845 37.2328 32.5611ZM19.1141 75.0611C18.0797 75.2533 17.1078 75.7767 16.3734 76.5298C14.8969 78.0486 14.5422 80.5252 15.5891 82.3767C16.7078 84.558 19.5703 85.6361 21.8359 84.6611C24.1828 83.8001 25.5844 81.0017 24.8141 78.6126C24.1828 76.2048 21.5547 74.5564 19.1141 75.0611ZM36.6109 117.569C34.8156 117.874 33.2547 119.244 32.7297 120.988C32.125 122.805 32.7094 124.919 34.1203 126.2C35.0812 127.056 36.3703 127.56 37.6625 127.5C39.4062 127.461 41.0969 126.427 41.9 124.875C42.6703 123.495 42.7047 121.747 42.0109 120.328C41.1016 118.331 38.7594 117.152 36.6109 117.569ZM79.1203 135.074C77.2828 135.389 75.6953 136.803 75.2 138.605C74.5953 140.569 75.3766 142.863 77.0609 144.041C78.2891 144.945 79.9391 145.239 81.4 144.8C82.9016 144.367 84.1656 143.2 84.6922 141.725C85.4688 139.735 84.7484 137.3 83.0391 136.028C81.9422 135.177 80.4844 134.83 79.1203 135.074Z" fill="#A0A0A0"/>
<path d="M79.1018 15.0624C81.544 14.5718 84.1721 16.1905 84.8128 18.6015C85.6003 21.0311 84.1393 23.8858 81.7284 24.7046C79.3534 25.6577 76.4112 24.3952 75.4221 22.0483C74.4893 20.0999 75.0737 17.6186 76.6987 16.2233C77.3893 15.6499 78.2112 15.2171 79.1018 15.0624Z" fill="#C1C1C1"/>
<path d="M19.1142 75.0608C21.5548 74.5561 24.183 76.2046 24.8142 78.6124C25.5845 81.0015 24.183 83.7999 21.8361 84.6608C19.5705 85.6358 16.708 84.5577 15.5892 82.3765C14.5423 80.5249 14.897 78.0483 16.3736 76.5296C17.108 75.7765 18.0798 75.253 19.1142 75.0608Z" fill="#C1C1C1"/>
<path d="M131.831 28.1642L131.848 28.147C135.698 32.072 139.186 36.3657 142.1 41.0329C147.727 49.9642 151.378 60.1298 152.705 70.6032C153.591 77.6157 153.528 84.7595 152.384 91.7392C150.4 104.241 145.05 116.178 137.087 126.014C130.478 134.214 122.108 141.02 112.648 145.664L112.55 145.624C112.392 145.452 112.233 145.286 112.073 145.12C105.706 138.725 99.3093 132.358 92.9437 125.959C92.5546 125.608 92.1999 124.902 91.5796 125.2C85.9312 126.642 80.0125 127.02 74.2281 126.294C67.4781 125.472 60.9203 123.131 55.1718 119.5C50.1843 116.364 45.8 112.272 42.325 107.514C38.5812 102.399 35.8875 96.511 34.5046 90.322C32.7843 82.7548 32.9609 74.7563 35.0921 67.2907C37.9343 57.1142 44.3984 48.0095 53.0296 41.9235C59.9859 36.9532 68.3468 33.9892 76.8781 33.4392C84.4296 32.9173 92.1124 34.2798 99.0218 37.3767C104.222 39.6767 108.947 42.9892 113.002 46.9657C119.292 40.7126 125.533 34.4095 131.831 28.1642ZM76.8703 56.9095C73.5531 57.3548 70.325 58.5157 67.514 60.3376C63.9078 62.5954 60.989 65.897 59.0921 69.6985C56.814 74.261 56.1796 79.5751 57.139 84.5688C57.7531 87.6704 59.0187 90.6438 60.8203 93.2423C62.0593 95.0423 63.5781 96.6267 65.1406 98.1454C74.0984 107.116 83.0484 116.092 92.014 125.053C99.6843 123.011 106.806 118.969 112.491 113.428C119.539 106.656 124.312 97.5782 125.977 87.9501C126.014 87.7876 126.011 87.4954 126.266 87.5438C130.895 87.5501 135.525 87.5423 140.156 87.5517C143.131 87.5048 145.917 85.2438 146.525 82.3235C146.559 82.1345 146.525 81.961 146.42 81.8001C146.611 80.9079 146.745 79.9907 146.636 79.0767L146.598 79.1392C146.278 75.961 143.342 73.3392 140.153 73.3313C127.553 73.3204 114.953 73.3298 102.352 73.3204C101.345 69.8704 99.4609 66.7063 97.0343 64.0657C93.0031 59.7688 87.3062 57.0329 81.4062 56.7501C79.8937 56.7532 78.3687 56.6657 76.8703 56.9095ZM121.616 117.583C119.641 117.905 117.964 119.55 117.6 121.517C117.369 122.789 117.578 124.177 118.339 125.244C119.239 126.681 120.964 127.55 122.653 127.47C123.953 127.475 125.197 126.853 126.116 125.961C126.877 125.086 127.436 123.981 127.47 122.805C127.605 121.028 126.68 119.195 125.147 118.28C124.128 117.583 122.82 117.381 121.616 117.583Z" fill="#686868"/>
<path d="M37.233 32.5612C38.6142 32.4846 40.0299 32.9987 41.0049 33.9878C42.1814 35.1284 42.783 36.8815 42.433 38.4956C42.0486 40.8049 39.8533 42.6487 37.5049 42.5846C35.2424 42.6549 33.1033 40.9393 32.6205 38.7393C32.0705 36.6893 33.0721 34.3909 34.8642 33.2924C35.5783 32.8612 36.4002 32.6049 37.233 32.5612Z" fill="#C3C3C3"/>
<path d="M76.8705 56.9095C78.369 56.6657 79.894 56.7532 81.4065 56.7501C87.3065 57.0329 93.0034 59.7688 97.0346 64.0657C99.4612 66.7063 101.346 69.8704 102.352 73.3204C94.9034 73.3188 87.4534 73.3188 80.0034 73.3188C78.0987 73.3016 76.2174 74.1657 74.9705 75.6016C74.0315 76.672 73.4487 78.047 73.3393 79.4673C73.1534 81.6813 74.1768 83.9516 75.9471 85.2923C77.1377 86.2157 78.6471 86.6985 80.1534 86.6673C99.9487 86.661 119.746 86.6579 139.541 86.672C140.285 86.6782 141.039 86.6485 141.76 86.4407C143.98 85.8438 145.825 84.0235 146.421 81.8001C146.525 81.961 146.56 82.1345 146.525 82.3235C145.917 85.2438 143.131 87.5048 140.156 87.5516C135.525 87.5423 130.896 87.5501 126.266 87.5438C126.011 87.4954 126.014 87.7876 125.977 87.9501C124.313 97.5782 119.539 106.656 112.491 113.428C106.806 118.969 99.6846 123.011 92.0143 125.053C83.0487 116.092 74.0987 107.116 65.1409 98.1454C63.5784 96.6266 62.0596 95.0423 60.8205 93.2423C59.019 90.6438 57.7534 87.6704 57.1393 84.5688C56.1799 79.5751 56.8143 74.261 59.0924 69.6985C60.9893 65.897 63.908 62.5954 67.5143 60.3376C70.3252 58.5157 73.5534 57.3548 76.8705 56.9095Z" fill="#474747"/>
<path d="M74.9701 75.6014C76.217 74.1655 78.0982 73.3014 80.0029 73.3186C87.4529 73.3186 94.9029 73.3186 102.351 73.3202C114.953 73.3296 127.553 73.3202 140.153 73.3311C143.342 73.3389 146.278 75.9608 146.598 79.1389C146.569 79.1905 146.508 79.2905 146.476 79.3405C145.901 76.4483 143.106 74.1592 140.153 74.1764C120.626 74.1921 101.1 74.1952 81.5732 74.203C80.3654 74.2233 79.1139 74.078 77.9561 74.5092C76.5404 74.953 75.342 75.9311 74.4764 77.1186C73.9545 77.8295 73.7904 78.7186 73.3389 79.467C73.4482 78.0467 74.0311 76.6717 74.9701 75.6014Z" fill="#BFBFBF"/>
<path d="M36.6109 117.568C38.7593 117.151 41.1015 118.331 42.0109 120.328C42.7046 121.747 42.6703 123.495 41.9 124.875C41.0968 126.426 39.4062 127.461 37.6625 127.5C36.3703 127.559 35.0812 127.056 34.1203 126.2C32.7093 124.918 32.125 122.804 32.7296 120.987C33.2546 119.243 34.8156 117.873 36.6109 117.568Z" fill="#BFBFBF"/>
<path d="M77.9562 74.5092C79.114 74.0779 80.3656 74.2232 81.5734 74.2029C101.1 74.1951 120.627 74.192 140.153 74.1764C143.106 74.1592 145.902 76.4482 146.477 79.3404C146.508 79.2904 146.569 79.1904 146.598 79.1389L146.636 79.0764C146.745 79.9904 146.611 80.9076 146.42 81.7998C145.825 84.0232 143.98 85.8435 141.759 86.4404C141.039 86.6482 140.284 86.6779 139.541 86.6717C119.745 86.6576 99.9484 86.6607 80.1531 86.667C78.6468 86.6982 77.1375 86.2154 75.9469 85.292C74.1765 83.9514 73.1531 81.681 73.339 79.467C73.7906 78.7185 73.9547 77.8295 74.4765 77.1185C75.3422 75.9311 76.5406 74.9529 77.9562 74.5092Z" fill="#B0B0B0"/>
<path d="M9.29541 99.3877C9.4501 99.6252 9.62197 99.8627 9.68916 100.146C10.2548 102.288 11.0829 104.346 11.8579 106.419C12.4642 107.874 13.0735 109.328 13.772 110.742C14.2813 112.005 15.0063 113.161 15.6313 114.367C18.4376 119.486 21.8438 124.286 25.8142 128.566C28.1595 131.275 30.8548 133.65 33.5829 135.964C37.036 138.733 40.686 141.267 44.572 143.392C53.8907 148.564 64.3626 151.622 74.9954 152.327C87.7001 153.224 100.619 150.683 112.074 145.121C112.233 145.286 112.392 145.452 112.55 145.624L112.555 145.719C105.942 149.005 98.8235 151.271 91.5298 152.424C82.6376 153.814 73.4892 153.594 64.6829 151.721C54.0751 149.478 43.9923 144.813 35.3985 138.203C25.4735 130.605 17.536 120.433 12.6079 108.942C11.2923 105.838 10.1188 102.658 9.29541 99.3877Z" fill="#939393"/>
<path d="M121.615 117.583C122.82 117.381 124.128 117.583 125.147 118.28C126.68 119.195 127.605 121.028 127.47 122.805C127.436 123.981 126.876 125.086 126.115 125.961C125.197 126.853 123.953 127.475 122.653 127.47C120.964 127.55 119.239 126.681 118.339 125.244C117.578 124.177 117.369 122.789 117.6 121.517C117.964 119.55 119.64 117.905 121.615 117.583Z" fill="#767676"/>
<path d="M79.1206 135.073C80.4846 134.83 81.9425 135.176 83.0393 136.028C84.7487 137.3 85.469 139.734 84.6925 141.725C84.1659 143.2 82.9018 144.367 81.4003 144.8C79.9393 145.239 78.2893 144.945 77.0612 144.04C75.3768 142.862 74.5956 140.569 75.2003 138.605C75.6956 136.803 77.2831 135.389 79.1206 135.073Z" fill="#BEBEBE"/>
</svg>