<svg width="170" height="93" viewBox="0 0 170 93" fill="none" xmlns="http://www.w3.org/2000/svg">
<rect y="47" width="103" height="37" rx="18.5" fill="#E8EDFC"/>
<rect x="67" width="103" height="37" rx="18.5" fill="#E8EDFC"/>
<path d="M110.967 59.3436V74.4099C110.967 76.6914 109.118 78.541 106.836 78.541H76.541V72.4545C76.5424 71.933 76.6903 71.4224 76.9679 70.981L80.2453 65.7482C80.5245 65.3126 80.6727 64.806 80.6722 64.2886V31.1017C80.6713 29.5927 79.8477 28.2043 78.524 27.48L51.7542 11.0656H101.328C103.609 11.0656 105.459 12.9152 105.459 15.1968V46.7863C105.458 47.7436 105.71 48.6842 106.189 49.5128L110.237 56.6184C110.717 57.4466 110.968 58.3867 110.967 59.3436Z" fill="#A4C2F7"/>
<path d="M110.237 56.617L106.189 49.5115C105.709 48.6828 105.458 47.7422 105.459 46.7849V15.1968C105.459 12.9152 103.609 11.0656 101.328 11.0656H97.1967C99.4782 11.0656 101.328 12.9152 101.328 15.1968V46.7863C101.326 47.7436 101.578 48.6842 102.058 49.5128L106.106 56.6184C106.586 57.447 106.837 58.3877 106.836 59.345V74.4099C106.836 76.6914 104.986 78.541 102.705 78.541H106.836C109.118 78.541 110.967 76.6914 110.967 74.4099V59.3436C110.968 58.3863 110.717 57.4456 110.237 56.617Z" fill="#7FACFA"/>
<path d="M80.6722 31.1003V64.2872C80.6727 64.8046 80.5245 65.3112 80.2453 65.7469L76.9679 70.9796C76.6903 71.4211 76.5424 71.9316 76.541 72.4531V88.1804C76.5405 89.1334 76.0473 90.0184 75.2371 90.5203C74.4269 91.0221 73.4148 91.0694 72.5614 90.6453L51.7542 78.541V11.0656L78.524 27.48C79.8473 28.2041 80.6708 29.5919 80.6722 31.1003Z" fill="#E8EDFC"/>
<path d="M78.524 27.4787L51.7542 11.0656V13.5994L74.3928 27.48C75.7162 28.2041 76.5396 29.5919 76.541 31.1003V64.2872C76.5415 64.8046 76.3933 65.3112 76.1141 65.7469L72.8368 70.9796C72.5592 71.4211 72.4113 71.9316 72.4099 72.4531V88.1804C72.4134 88.8992 72.1316 89.59 71.6263 90.1014L72.5614 90.6522C73.4159 91.0768 74.4294 91.0288 75.2401 90.5254C76.0507 90.0219 76.5429 89.1346 76.541 88.1804V72.4531C76.5424 71.9316 76.6903 71.4211 76.9679 70.9796L80.2453 65.7469C80.5245 65.3112 80.6727 64.8046 80.6722 64.2872V31.1003C80.6713 29.5914 79.8477 28.203 78.524 27.4787Z" fill="#CAD9FC"/>
<path d="M109.59 90.9345C121.759 90.9345 131.623 81.07 131.623 68.9017C131.623 56.7333 121.759 46.8689 109.59 46.8689C97.4218 46.8689 87.5574 56.7333 87.5574 68.9017C87.5574 81.07 97.4218 90.9345 109.59 90.9345Z" fill="#E8EDFC"/>
<path d="M109.59 46.8689C108.933 46.8689 108.287 46.9102 107.646 46.9667C119.012 47.9705 127.729 57.4909 127.729 68.9017C127.729 80.3124 119.012 89.8329 107.646 90.8367C108.287 90.8932 108.933 90.9345 109.59 90.9345C121.759 90.9345 131.623 81.07 131.623 68.9017C131.623 56.7333 121.759 46.8689 109.59 46.8689Z" fill="#CAD9FC"/>
<path d="M51.7542 78.541L72.5614 90.6453C73.633 91.1777 74.9259 90.9548 75.7575 90.0945L55.8853 78.541V11.0656H51.7542V78.541Z" fill="white"/>
<path d="M50.3771 67.5246H53.1312V78.541H50.3771V67.5246Z" fill="white"/>
<path d="M51.7541 74.4099C52.5146 74.4099 53.1312 73.7933 53.1312 73.0328C53.1312 72.2723 52.5146 71.6558 51.7541 71.6558C50.9936 71.6558 50.3771 72.2723 50.3771 73.0328C50.3771 73.7933 50.9936 74.4099 51.7541 74.4099Z" fill="#006AC6"/>
<path d="M57.2623 26.2132C58.0228 26.2132 58.6394 25.5966 58.6394 24.8361V22.082C58.6394 21.3215 58.0228 20.705 57.2623 20.705C56.5018 20.705 55.8853 21.3215 55.8853 22.082V24.8361C55.8853 25.5966 56.5018 26.2132 57.2623 26.2132Z" fill="#006AC6"/>
<path d="M55.8853 56.5082C55.8853 57.2688 56.5018 57.8853 57.2623 57.8853C58.0228 57.8853 58.6394 57.2688 58.6394 56.5082V31.7213C58.6394 30.9608 58.0228 30.3443 57.2623 30.3443C56.5018 30.3443 55.8853 30.9608 55.8853 31.7213V56.5082Z" fill="#006AC6"/>
<path d="M109.59 45.4918C108.67 45.4968 107.75 45.5556 106.836 45.6681V15.1967C106.836 12.1546 104.37 9.68854 101.328 9.68854H51.7541C50.9936 9.68854 50.3771 10.3051 50.3771 11.0656V67.5246C50.3771 68.2851 50.9936 68.9016 51.7541 68.9016C52.5146 68.9016 53.1312 68.2851 53.1312 67.5246V13.525L77.8671 28.6918C78.7457 29.1745 79.2927 30.0964 79.2951 31.0989V64.2858C79.2955 64.5454 79.2224 64.7998 79.0844 65.0197L75.796 70.2525C75.3824 70.9129 75.1633 71.6766 75.164 72.4558V88.1803C75.168 88.6587 74.9201 89.1038 74.5112 89.3522C74.135 89.6 73.6582 89.6385 73.2471 89.4541L52.4426 77.3512C52.0159 77.0693 51.4681 77.0471 51.0199 77.2936C50.5718 77.54 50.2972 78.0146 50.3068 78.5259C50.3163 79.0373 50.6085 79.5012 51.0656 79.7308L71.943 91.8722C73.2228 92.5105 74.7418 92.4415 75.9584 91.6898C77.1751 90.938 77.9163 89.6105 77.9181 88.1803V79.918H88.9455C94.339 90.0309 106.261 94.7517 117.116 91.0725C127.971 87.3934 134.565 76.3962 132.698 65.0881C130.831 53.78 121.051 45.4864 109.59 45.4918ZM77.9181 77.1639V72.4489C77.918 72.1898 77.991 71.9358 78.1288 71.7163L81.4171 66.4835C81.8299 65.8258 82.049 65.0651 82.0492 64.2885V31.1017C82.0549 29.1139 80.9835 27.2789 79.2497 26.3068L56.6358 12.4426H101.328C102.849 12.4426 104.082 13.6757 104.082 15.1967V46.1803C97.5551 47.7377 92.0159 52.0323 88.8816 57.9655C85.7473 63.8987 85.3219 70.8948 87.7144 77.1639H77.9181ZM109.59 89.5574C98.1824 89.5574 88.9345 80.3095 88.9345 68.9016C88.9345 57.4938 98.1824 48.2459 109.59 48.2459C120.998 48.2459 130.246 57.4938 130.246 68.9016C130.233 80.3041 120.993 89.5445 109.59 89.5574Z" fill="#006AC6"/>
<path d="M110.967 68.3315V52.377C110.967 51.6165 110.351 51 109.59 51C108.83 51 108.213 51.6165 108.213 52.377V68.9016C108.213 69.2668 108.358 69.617 108.617 69.8752L116.879 78.1375C117.419 78.6594 118.278 78.6519 118.809 78.1207C119.34 77.5896 119.348 76.7307 118.826 76.1904L110.967 68.3315Z" fill="#006AC6"/>
</svg>
