<svg width="8" height="16" viewBox="0 0 8 16" fill="none" xmlns="http://www.w3.org/2000/svg">
<path d="M6.5 6.52632C6.77614 6.52632 7 6.2514 7 5.91228C7 5.57316 6.77614 5.29825 6.5 5.29825C6.22386 5.29825 6 5.57316 6 5.91228C6 6.2514 6.22386 6.52632 6.5 6.52632Z" stroke="black" stroke-linecap="round" stroke-linejoin="round"/>
<path d="M6.5 2.22807C6.77614 2.22807 7 1.95316 7 1.61404C7 1.27491 6.77614 1 6.5 1C6.22386 1 6 1.27491 6 1.61404C6 1.95316 6.22386 2.22807 6.5 2.22807Z" stroke="black" stroke-linecap="round" stroke-linejoin="round"/>
<path d="M6.5 10.8246C6.77614 10.8246 7 10.5496 7 10.2105C7 9.8714 6.77614 9.59649 6.5 9.59649C6.22386 9.59649 6 9.8714 6 10.2105C6 10.5496 6.22386 10.8246 6.5 10.8246Z" stroke="black" stroke-linecap="round" stroke-linejoin="round"/>
<path d="M6.5 15C6.77614 15 7 14.7251 7 14.386C7 14.0468 6.77614 13.7719 6.5 13.7719C6.22386 13.7719 6 14.0468 6 14.386C6 14.7251 6.22386 15 6.5 15Z" stroke="black" stroke-linecap="round" stroke-linejoin="round"/>
<path d="M1.5 6.52632C1.77614 6.52632 2 6.2514 2 5.91228C2 5.57316 1.77614 5.29825 1.5 5.29825C1.22386 5.29825 1 5.57316 1 5.91228C1 6.2514 1.22386 6.52632 1.5 6.52632Z" stroke="black" stroke-linecap="round" stroke-linejoin="round"/>
<path d="M1.5 2.22807C1.77614 2.22807 2 1.95316 2 1.61404C2 1.27491 1.77614 1 1.5 1C1.22386 1 1 1.27491 1 1.61404C1 1.95316 1.22386 2.22807 1.5 2.22807Z" stroke="black" stroke-linecap="round" stroke-linejoin="round"/>
<path d="M1.5 10.8246C1.77614 10.8246 2 10.5496 2 10.2105C2 9.8714 1.77614 9.59649 1.5 9.59649C1.22386 9.59649 1 9.8714 1 10.2105C1 10.5496 1.22386 10.8246 1.5 10.8246Z" stroke="black" stroke-linecap="round" stroke-linejoin="round"/>
<path d="M1.5 15C1.77614 15 2 14.7251 2 14.386C2 14.0468 1.77614 13.7719 1.5 13.7719C1.22386 13.7719 1 14.0468 1 14.386C1 14.7251 1.22386 15 1.5 15Z" stroke="black" stroke-linecap="round" stroke-linejoin="round"/>
</svg>
