<svg xmlns="http://www.w3.org/2000/svg" width="64" height="64" viewBox="0 0 64 64" fill="none">
<g clip-path="url(#clip0)">
<path d="M62.4915 46.8286V54.3322C62.4915 55.2241 61.7696 55.9459 60.8779 55.9459H3.12437C2.23262 55.9459 1.51074 55.224 1.51074 54.3322V46.8286C1.51074 46.6574 1.53737 46.4874 1.59199 46.325L9.76287 21.5051C9.97974 20.8429 10.5976 20.3964 11.2954 20.3964H52.707C53.4048 20.3964 54.0225 20.8429 54.2395 21.5051L62.4104 46.3249C62.4649 46.4874 62.4915 46.6574 62.4915 46.8286Z" fill="#9E9797"/>
<path d="M62.4907 46.8286V54.3322C62.4907 55.2241 61.7689 55.9459 60.8771 55.9459H51.175C51.142 44.5071 51.3184 25.628 51.3704 20.3964H52.7062C53.404 20.3964 54.0217 20.8429 54.2387 21.5051L62.4096 46.3249C62.4641 46.4874 62.4907 46.6574 62.4907 46.8286Z" fill="#B9ACAC"/>
<path d="M1.50977 46.8286V54.3322C1.50977 55.2241 2.23164 55.9459 3.12339 55.9459H12.8255C12.8585 44.5071 12.6821 25.628 12.6301 20.3964H11.2944C10.5966 20.3964 9.97889 20.8429 9.76189 21.5051L1.59102 46.325C1.53652 46.4874 1.50977 46.6574 1.50977 46.8286Z" fill="#B9ACAC"/>
<path d="M56.3609 46.3243L51.3853 31.2109C51.1674 30.5492 50.5495 30.1021 49.8528 30.1021H14.1494C13.4528 30.1021 12.8348 30.5492 12.6169 31.2109L7.64142 46.3243C7.5878 46.4872 7.56055 46.6575 7.56055 46.8288V54.3326C7.56055 55.2236 8.28292 55.946 9.17392 55.946H54.8285C55.7195 55.946 56.4419 55.2236 56.4419 54.3326V46.8288C56.4418 46.6575 56.4145 46.4871 56.3609 46.3243Z" fill="#756F6F"/>
<path d="M32.0006 43.4767C38.5145 43.4767 43.7951 41.9921 43.7951 40.1607C43.7951 38.3294 38.5145 36.8447 32.0006 36.8447C25.4866 36.8447 20.2061 38.3294 20.2061 40.1607C20.2061 41.9921 25.4866 43.4767 32.0006 43.4767Z" fill="#5B5555"/>
<path d="M56.441 46.8292V54.3329C56.441 55.2235 55.7183 55.9463 54.8276 55.9463H49.2148C50.1054 55.9463 50.8281 55.2235 50.8281 54.3329V46.8292C50.8281 46.6582 50.8008 46.4872 50.7475 46.3242L45.7719 31.2103C45.5541 30.5488 44.9361 30.1019 44.2393 30.1019H49.8521C50.5491 30.1019 51.167 30.5488 51.3848 31.2103L56.3604 46.3242C56.4136 46.4872 56.441 46.6582 56.441 46.8292Z" fill="#5B5555"/>
<path d="M62.4913 48.3861V62.3867C62.4913 63.2777 61.7689 64.0001 60.8779 64.0001H3.12314C2.23214 64.0001 1.50977 63.2777 1.50977 62.3867V48.3861C1.50977 47.4951 2.23214 46.7727 3.12314 46.7727H15.0353C15.6518 46.7727 16.2144 47.1241 16.485 47.6781L18.8258 52.4708C19.0963 53.0248 19.6589 53.3762 20.2755 53.3762H43.7255C44.342 53.3762 44.9046 53.0248 45.1753 52.4708L47.516 47.6781C47.7865 47.1241 48.3491 46.7727 48.9658 46.7727H60.8779C61.7689 46.7727 62.4913 47.4951 62.4913 48.3861Z" fill="#31A7FB"/>
<path d="M62.4911 48.3861V62.3867C62.4911 63.2773 61.7684 64.0001 60.8777 64.0001H54.7344C55.625 64.0001 56.3477 63.2773 56.3477 62.3867V48.3861C56.3477 47.4956 55.625 46.7727 54.7344 46.7727H60.8777C61.7682 46.7727 62.4911 47.4956 62.4911 48.3861Z" fill="#1C96F9"/>
<path d="M9.8462 60.5614H6.36446C5.83896 60.5614 5.41309 60.1354 5.41309 59.6101C5.41309 59.0847 5.83909 58.6587 6.36446 58.6587H9.8462C10.3717 58.6587 10.7976 59.0847 10.7976 59.6101C10.7976 60.1354 10.3717 60.5614 9.8462 60.5614Z" fill="#F8F3F1"/>
<path d="M9.8462 57.5893H6.36446C5.83896 57.5893 5.41309 57.1633 5.41309 56.6378C5.41309 56.1123 5.83909 55.6864 6.36446 55.6864H9.8462C10.3717 55.6864 10.7976 56.1124 10.7976 56.6378C10.7977 57.1633 10.3717 57.5893 9.8462 57.5893Z" fill="#F8F3F1"/>
<path d="M32.0006 40.5644C38.0976 40.5644 43.0402 35.6218 43.0402 29.5248C43.0402 23.4278 38.0976 18.4852 32.0006 18.4852C25.9036 18.4852 20.9609 23.4278 20.9609 29.5248C20.9609 35.6218 25.9036 40.5644 32.0006 40.5644Z" fill="#A3E440"/>
<path d="M43.0408 29.5246C43.0408 35.6219 38.0979 40.5648 32.0019 40.5648C31.2608 40.5648 30.5364 40.4919 29.8359 40.3518C34.8952 39.3444 38.7074 34.8793 38.7074 29.5246C38.7074 24.1698 34.8952 19.7061 29.8359 18.6987C30.5364 18.5586 31.2608 18.4857 32.0019 18.4857C38.0979 18.4857 43.0408 23.4272 43.0408 29.5246Z" fill="#99D53B"/>
<path d="M34.1948 33.7627C33.9763 33.7627 33.7568 33.6878 33.5776 33.5349C33.1421 33.1632 32.5211 32.9489 31.8736 32.9469C31.8707 32.9469 31.8677 32.9469 31.8647 32.9469C31.2206 32.9469 30.6021 33.1573 30.1663 33.5247C29.7647 33.8635 29.1643 33.8124 28.8257 33.4107C28.4869 33.0089 28.5379 32.4088 28.9397 32.0701C29.7281 31.4051 30.7739 31.0417 31.8794 31.0441C32.9868 31.0475 34.0286 31.4181 34.8131 32.0876C35.2127 32.4287 35.2602 33.0293 34.9191 33.4289C34.7307 33.6494 34.4636 33.7627 34.1948 33.7627Z" fill="#82B732"/>
<path d="M26.7551 29.3759C26.7534 29.3759 26.7516 29.3759 26.7497 29.3759C26.2242 29.373 25.795 28.9448 25.7979 28.4193C25.8007 27.8938 26.2232 27.4763 26.7489 27.473H26.7602C27.2857 27.4759 27.7094 27.9041 27.7065 28.4296C27.7036 28.9533 27.2781 29.3759 26.7551 29.3759Z" fill="#82B732"/>
<path d="M13.2393 10.0872C13.2393 8.21334 14.7583 6.69434 16.6321 6.69434C18.506 6.69434 20.0249 8.21334 20.0249 10.0872C20.0249 11.9611 18.5059 13.4801 16.632 13.4801C14.7581 13.4801 13.2393 11.9611 13.2393 10.0872Z" fill="#BCEA73"/>
<path d="M14.9111 13.011C16.243 12.704 17.2353 11.5117 17.2353 10.0868C17.2353 8.66346 16.2445 7.46959 14.9126 7.16259C15.4165 6.86484 16.0041 6.69434 16.6321 6.69434C18.5051 6.69434 20.0245 8.21384 20.0245 10.0868C20.0245 11.9613 18.505 13.4808 16.6321 13.4808C16.0041 13.4808 15.415 13.3102 14.9111 13.011Z" fill="#99D53B"/>
<path d="M27.6408 0.278841C27.2693 -0.0927842 26.6669 -0.0927842 26.2953 0.278841L25.5262 1.04797L24.757 0.278841C24.3855 -0.0926591 23.783 -0.0926591 23.4115 0.278841C23.0399 0.650341 23.0399 1.25284 23.4115 1.62434L24.1807 2.39347L23.4115 3.16259C23.0399 3.53409 23.0399 4.13659 23.4115 4.50809C23.5973 4.69397 23.8408 4.78672 24.0843 4.78672C24.3277 4.78672 24.5713 4.69384 24.757 4.50809L25.5262 3.73897L26.2953 4.50809C26.481 4.69384 26.7245 4.78672 26.968 4.78672C27.2115 4.78672 27.455 4.69384 27.6408 4.50809C28.0124 4.13659 28.0124 3.53409 27.6408 3.16259L26.8716 2.39347L27.6408 1.62434C28.0124 1.25272 28.0124 0.650341 27.6408 0.278841Z" fill="#64B9FC"/>
<path d="M48.3902 11.7299L49.1593 10.9608C49.5309 10.5893 49.5309 9.98679 49.1593 9.61529C48.7878 9.2438 48.1853 9.2438 47.8138 9.61529L47.0447 10.3844L46.2756 9.61529C45.9041 9.2438 45.3016 9.2438 44.9301 9.61529C44.5585 9.98679 44.5585 10.5893 44.9301 10.9608L45.6992 11.7299L44.9301 12.499C44.5585 12.8705 44.5585 13.473 44.9301 13.8445C45.1158 14.0303 45.3593 14.1232 45.6028 14.1232C45.8463 14.1232 46.0898 14.0303 46.2756 13.8445L47.0447 13.0754L47.8138 13.8445C47.9996 14.0303 48.2431 14.1232 48.4866 14.1232C48.7301 14.1232 48.9736 14.0303 49.1593 13.8445C49.5309 13.473 49.5309 12.8705 49.1593 12.499L48.3902 11.7299Z" fill="#64B9FC"/>
<path d="M31.9505 13.7006C31.9495 13.7006 31.9486 13.7006 31.9476 13.7006C31.4221 13.6991 30.9975 13.2717 30.999 12.7464L31.0074 9.9131C31.0089 9.3886 31.4346 8.96448 31.9588 8.96448H31.9616C32.4871 8.96598 32.9117 9.39335 32.9102 9.91873L32.9019 12.752C32.9004 13.2765 32.4746 13.7006 31.9505 13.7006Z" fill="#BCEA73"/>
<path d="M27.7264 14.9083C27.4029 14.9083 27.0875 14.7433 26.9092 14.4457L25.4371 11.9879C25.1671 11.537 25.3136 10.9528 25.7644 10.6828C26.2152 10.4127 26.7994 10.5593 27.0695 11.01L28.5416 13.4678C28.8116 13.9187 28.6651 14.5029 28.2144 14.7729C28.0612 14.8645 27.8927 14.9083 27.7264 14.9083Z" fill="#BCEA73"/>
<path d="M36.1674 14.947C35.9993 14.947 35.8289 14.9024 35.6747 14.8087C35.2255 14.5361 35.0824 13.9509 35.355 13.5017L36.8418 11.0521C37.1144 10.6029 37.6995 10.4599 38.1488 10.7325C38.5979 11.0051 38.7411 11.5904 38.4684 12.0395L36.9817 14.4891C36.8027 14.784 36.4889 14.947 36.1674 14.947Z" fill="#BCEA73"/>
<path d="M40.6852 7.54698C42.1736 7.54698 43.3802 6.34039 43.3802 4.85198C43.3802 3.36357 42.1736 2.15698 40.6852 2.15698C39.1968 2.15698 37.9902 3.36357 37.9902 4.85198C37.9902 6.34039 39.1968 7.54698 40.6852 7.54698Z" fill="#A8E7EF"/>
<path d="M43.38 4.85173C43.38 6.34073 42.1731 7.5476 40.6854 7.5476C40.1866 7.5476 39.7186 7.4121 39.3184 7.17448C40.3762 6.9306 41.1645 5.9836 41.1645 4.85173C41.1645 3.7211 40.3775 2.77285 39.3196 2.52898C39.7199 2.29248 40.1866 2.1571 40.6854 2.1571C42.1731 2.15698 43.38 3.36398 43.38 4.85173Z" fill="#70D9E6"/>
<path d="M37.2561 29.3758C37.2543 29.3758 37.2526 29.3758 37.2507 29.3758C36.7252 29.3729 36.296 28.9445 36.2988 28.419C36.3017 27.8954 36.7216 27.4728 37.2444 27.4728H37.2498H37.2611C37.7866 27.4757 38.2102 27.9039 38.2073 28.4294C38.2044 28.9532 37.7789 29.3758 37.2561 29.3758Z" fill="#82B732"/>
</g>
<defs>
<clipPath id="clip0">
<rect width="64" height="64" fill="white"/>
</clipPath>
</defs>
</svg>