<svg xmlns="http://www.w3.org/2000/svg" width="59" height="13" viewBox="0 0 59 13" fill="none">
<path d="M18.203 3.75862C18.8883 3.75862 19.4991 3.93488 20.0354 4.28739C20.5817 4.62984 21.0088 5.1284 21.3167 5.78307C21.6345 6.42767 21.7934 7.19314 21.7934 8.07947C21.7934 8.95572 21.6345 9.72119 21.3167 10.3759C21.0088 11.0305 20.5817 11.5341 20.0354 11.8866C19.4991 12.2291 18.8883 12.4003 18.203 12.4003C17.5674 12.4003 17.0211 12.2543 16.5642 11.9622C16.1074 11.6701 15.7747 11.2723 15.5661 10.7687V12.2946H13.0186V1.11475H15.5661V5.39027C15.7747 4.88667 16.1074 4.48883 16.5642 4.19675C17.0211 3.90466 17.5674 3.75862 18.203 3.75862ZM17.3836 6.0248C16.8473 6.0248 16.4053 6.21113 16.0577 6.58379C15.72 6.94638 15.5512 7.44494 15.5512 8.07947C15.5512 8.70392 15.72 9.20248 16.0577 9.57514C16.4053 9.9478 16.8473 10.1341 17.3836 10.1341C17.9299 10.1341 18.3669 9.95284 18.6946 9.59025C19.0323 9.22766 19.2012 8.72407 19.2012 8.07947C19.2012 7.43486 19.0323 6.93127 18.6946 6.56868C18.3669 6.20609 17.9299 6.0248 17.3836 6.0248Z" fill="#9D9DA6"/>
<path d="M24.918 1.11475V12.2946H22.3704V1.11475H24.918Z" fill="#9D9DA6"/>
<path d="M29.0903 3.75862C29.7259 3.75862 30.2722 3.90466 30.7291 4.19675C31.1859 4.48883 31.5236 4.88667 31.7421 5.39027V3.86437H34.2747V12.2946H31.7421V10.7687C31.5236 11.2723 31.1859 11.6701 30.7291 11.9622C30.2722 12.2543 29.7259 12.4003 29.0903 12.4003C28.405 12.4003 27.7892 12.2291 27.243 11.8866C26.7066 11.5341 26.2796 11.0305 25.9617 10.3759C25.6539 9.72119 25.4999 8.95572 25.4999 8.07947C25.4999 7.19314 25.6539 6.42767 25.9617 5.78307C26.2796 5.1284 26.7066 4.62984 27.243 4.28739C27.7892 3.93488 28.405 3.75862 29.0903 3.75862ZM29.9097 6.0248C29.3634 6.0248 28.9215 6.20609 28.5838 6.56868C28.256 6.93127 28.0921 7.43486 28.0921 8.07947C28.0921 8.72407 28.256 9.22766 28.5838 9.59025C28.9215 9.95284 29.3634 10.1341 29.9097 10.1341C30.446 10.1341 30.883 9.9478 31.2207 9.57514C31.5683 9.20248 31.7421 8.70392 31.7421 8.07947C31.7421 7.44494 31.5683 6.94638 31.2207 6.58379C30.883 6.21113 30.446 6.0248 29.9097 6.0248Z" fill="#9D9DA6"/>
<path d="M37.5334 10.1341H41.3771V12.2946H34.7475V10.255L38.323 6.00969H34.8071V3.86437H41.2281V5.90393L37.5334 10.1341Z" fill="#9D9DA6"/>
<path d="M45.7307 3.75862C46.5551 3.75862 47.29 3.93488 47.9356 4.28739C48.5911 4.62984 49.1026 5.1284 49.4701 5.78307C49.8475 6.43775 50.0362 7.20321 50.0362 8.07947C50.0362 8.95572 49.8475 9.72119 49.4701 10.3759C49.1026 11.0305 48.5911 11.5341 47.9356 11.8866C47.29 12.2291 46.5551 12.4003 45.7307 12.4003C44.9064 12.4003 44.1664 12.2291 43.5109 11.8866C42.8554 11.5341 42.339 11.0305 41.9616 10.3759C41.5941 9.72119 41.4103 8.95572 41.4103 8.07947C41.4103 7.20321 41.5941 6.43775 41.9616 5.78307C42.339 5.1284 42.8554 4.62984 43.5109 4.28739C44.1664 3.93488 44.9064 3.75862 45.7307 3.75862ZM45.7307 5.99458C45.244 5.99458 44.8319 6.17588 44.4942 6.53846C44.1664 6.89098 44.0026 7.40465 44.0026 8.07947C44.0026 8.75428 44.1664 9.26795 44.4942 9.62047C44.8319 9.97298 45.244 10.1492 45.7307 10.1492C46.2174 10.1492 46.6246 9.97298 46.9523 9.62047C47.2801 9.26795 47.444 8.75428 47.444 8.07947C47.444 7.40465 47.2801 6.89098 46.9523 6.53846C46.6246 6.17588 46.2174 5.99458 45.7307 5.99458Z" fill="#9D9DA6"/>
<path d="M55.8862 3.77373C56.8396 3.77373 57.5944 4.09603 58.1506 4.74063C58.7167 5.38523 58.9998 6.27156 58.9998 7.39961V12.2946H56.4523V7.70177C56.4523 7.13774 56.3033 6.69962 56.0053 6.38739C55.7173 6.06509 55.33 5.90393 54.8433 5.90393C54.3268 5.90393 53.9147 6.07012 53.6068 6.40249C53.3088 6.73487 53.1598 7.20825 53.1598 7.82263V12.2946H50.6123V3.86437H53.1598V5.40538C53.3982 4.90178 53.7508 4.50394 54.2176 4.21186C54.6943 3.91977 55.2505 3.77373 55.8862 3.77373Z" fill="#9D9DA6"/>
<ellipse cx="4.85609" cy="7.98688" rx="3.64195" ry="3.69329" transform="rotate(-180 4.85609 7.98688)" fill="#9D9DA6"/>
<ellipse cx="1.82111" cy="2.44681" rx="1.82098" ry="1.84665" transform="rotate(-180 1.82111 2.44681)" fill="#9D9DA6"/>
</svg>