<svg xmlns="http://www.w3.org/2000/svg" width="110" height="110" viewBox="0 0 110 110" fill="none">
<mask id="mask0" mask-type="alpha" maskUnits="userSpaceOnUse" x="0" y="0" width="110" height="110">
<rect width="110" height="110" fill="#C4C4C4"/>
</mask>
<g mask="url(#mask0)">
<path fill-rule="evenodd" clip-rule="evenodd" d="M53.5704 8.47791C63.2912 8.54081 70.7368 16.3218 78.5215 22.1425C86.1841 27.8719 94.2617 33.2773 98.3226 41.9396C102.745 51.3728 104.485 62.0918 101.992 72.2072C99.3827 82.7962 93.8739 93.5319 84.3133 98.7823C75.1062 103.839 64.0737 98.6247 53.5704 98.7993C42.8047 98.9783 31.1972 105.537 22.0757 99.8168C12.9061 94.0667 12.1945 81.2934 9.11104 70.92C6.11684 60.8468 0.610777 50.303 4.45037 40.5207C8.24199 30.8605 19.6908 27.4886 28.3836 21.818C36.5402 16.4972 43.8313 8.41488 53.5704 8.47791Z" fill="#E9E8EB" stroke="#D4D3D9"/>
<mask id="mask1" mask-type="alpha" maskUnits="userSpaceOnUse" x="2" y="7" width="102" height="96">
<path fill-rule="evenodd" clip-rule="evenodd" d="M53.5704 8.47791C63.2912 8.54081 70.7368 16.3218 78.5215 22.1425C86.1841 27.8719 94.2617 33.2773 98.3226 41.9396C102.745 51.3728 104.485 62.0918 101.992 72.2072C99.3827 82.7962 93.8739 93.5319 84.3133 98.7823C75.1062 103.839 64.0737 98.6247 53.5704 98.7993C42.8047 98.9783 31.1972 105.537 22.0757 99.8168C12.9061 94.0667 12.1945 81.2934 9.11104 70.92C6.11684 60.8468 0.610777 50.303 4.45037 40.5207C8.24199 30.8605 19.6908 27.4886 28.3836 21.818C36.5402 16.4972 43.8313 8.41488 53.5704 8.47791Z" fill="#E9E8EB" stroke="#D4D3D9"/>
</mask>
<g mask="url(#mask1)">
<ellipse cx="52.1367" cy="90.4775" rx="50" ry="6" fill="#D4D3D9"/>
</g>
<path d="M81.0772 8.47754H26.831C24.2384 8.47754 22.1367 10.5792 22.1367 13.1718V84.3291C22.1367 86.9217 24.2384 89.0234 26.831 89.0234H81.0772C83.6698 89.0234 85.7715 86.9217 85.7715 84.3291V13.1718C85.7715 10.5792 83.6698 8.47754 81.0772 8.47754Z" fill="#BDBCC5"/>
<path d="M33.2541 89.0273H27.9731C27.811 89.0273 27.6797 89.1587 27.6797 89.3207V90.1696C27.6797 90.3317 27.811 90.463 27.9731 90.463H33.2541C33.4162 90.463 33.5475 90.3317 33.5475 90.1696V89.3207C33.5475 89.1587 33.4162 89.0273 33.2541 89.0273Z" fill="#263238" fill-opacity="0.56"/>
<path d="M79.9319 89.0273H74.6508C74.4888 89.0273 74.3574 89.1587 74.3574 89.3207V90.1696C74.3574 90.3317 74.4888 90.463 74.6508 90.463H79.9319C80.0939 90.463 80.2253 90.3317 80.2253 90.1696V89.3207C80.2253 89.1587 80.0939 89.0273 79.9319 89.0273Z" fill="#263238" fill-opacity="0.56"/>
<path opacity="0.2" d="M81.0772 8.47754H26.831C24.2384 8.47754 22.1367 10.5792 22.1367 13.1718V84.3291C22.1367 86.9217 24.2384 89.0234 26.831 89.0234H81.0772C83.6698 89.0234 85.7715 86.9217 85.7715 84.3291V13.1718C85.7715 10.5792 83.6698 8.47754 81.0772 8.47754Z" fill="black"/>
<g style="mix-blend-mode:color-dodge" opacity="0.4">
<path d="M74.6854 79.7368H33.2194C32.7445 79.7358 32.2894 79.5467 31.9536 79.2109C31.6179 78.8751 31.4288 78.42 31.4277 77.9452V19.5641C31.4277 19.0886 31.6164 18.6325 31.9523 18.2958C32.2881 17.9592 32.7438 17.7696 33.2194 17.7686H74.6854C75.161 17.7696 75.6167 17.9592 75.9526 18.2958C76.2884 18.6325 76.4771 19.0886 76.4771 19.5641V77.9452C76.476 78.42 76.287 78.8751 75.9512 79.2109C75.6154 79.5467 75.1603 79.7358 74.6854 79.7368ZM33.2194 17.9641C32.7957 17.9652 32.3898 18.1342 32.0906 18.4341C31.7914 18.7341 31.6233 19.1405 31.6233 19.5641V77.9452C31.6233 78.1548 31.6646 78.3623 31.7448 78.556C31.825 78.7496 31.9426 78.9255 32.0908 79.0738C32.239 79.222 32.415 79.3395 32.6086 79.4197C32.8022 79.5 33.0098 79.5412 33.2194 79.5412H74.6854C75.1087 79.5412 75.5147 79.3731 75.814 79.0738C76.1133 78.7744 76.2815 78.3685 76.2815 77.9452V19.5641C76.2815 19.1405 76.1135 18.7341 75.8143 18.4341C75.515 18.1342 75.1091 17.9652 74.6854 17.9641H33.2194Z" fill="#E6E6E6"/>
</g>
<path d="M75.5996 77.9449V19.5599C75.5996 19.0565 75.1915 18.6484 74.6881 18.6484L33.2182 18.6484C32.7148 18.6484 32.3067 19.0565 32.3067 19.5599L32.3067 77.9449C32.3067 78.4483 32.7148 78.8564 33.2182 78.8564H74.6881C75.1915 78.8564 75.5996 78.4483 75.5996 77.9449Z" fill="#BDBCC5"/>
<path opacity="0.1" d="M75.5996 77.9449V19.5599C75.5996 19.0565 75.1915 18.6484 74.6881 18.6484L33.2182 18.6484C32.7148 18.6484 32.3067 19.0565 32.3067 19.5599L32.3067 77.9449C32.3067 78.4483 32.7148 78.8564 33.2182 78.8564H74.6881C75.1915 78.8564 75.5996 78.4483 75.5996 77.9449Z" fill="white"/>
<path d="M87.1373 25.0835H86.7461V28.3851H87.1373V25.0835Z" fill="#BDBCC5"/>
<path d="M87.1373 13.1719H86.7461V21.6059H87.1373V13.1719Z" fill="#BDBCC5"/>
<path opacity="0.1" d="M53.9528 63.2323C61.3201 63.2323 67.2924 57.26 67.2924 49.8928C67.2924 42.5255 61.3201 36.5532 53.9528 36.5532C46.5856 36.5532 40.6133 42.5255 40.6133 49.8928C40.6133 57.26 46.5856 63.2323 53.9528 63.2323Z" fill="black"/>
<path d="M53.952 30.0826C55.7516 30.0826 57.2106 28.6237 57.2106 26.824C57.2106 25.0244 55.7516 23.5654 53.952 23.5654C52.1523 23.5654 50.6934 25.0244 50.6934 26.824C50.6934 28.6237 52.1523 30.0826 53.952 30.0826Z" fill="#BDBCC5"/>
<path opacity="0.6" d="M53.9324 30.0748C55.7321 30.0748 57.191 28.6159 57.191 26.8162C57.191 25.0165 55.7321 23.5576 53.9324 23.5576C52.1328 23.5576 50.6738 25.0165 50.6738 26.8162C50.6738 28.6159 52.1328 30.0748 53.9324 30.0748Z" fill="white"/>
<path d="M53.9529 29.3981C53.4438 29.3981 52.9462 29.2471 52.5229 28.9643C52.0996 28.6814 51.7697 28.2794 51.5748 27.8091C51.38 27.3387 51.329 26.8212 51.4284 26.3219C51.5277 25.8225 51.7728 25.3639 52.1328 25.0039C52.4928 24.6439 52.9514 24.3988 53.4508 24.2995C53.9501 24.2001 54.4676 24.2511 54.938 24.4459C55.4083 24.6408 55.8103 24.9707 56.0932 25.394C56.376 25.8173 56.527 26.3149 56.527 26.824C56.5259 27.5064 56.2544 28.1605 55.7719 28.643C55.2894 29.1255 54.6353 29.397 53.9529 29.3981ZM53.9529 24.4456C53.4825 24.4456 53.0227 24.5851 52.6316 24.8464C52.2404 25.1078 51.9356 25.4792 51.7556 25.9138C51.5755 26.3484 51.5284 26.8267 51.6202 27.288C51.712 27.7494 51.9385 28.1732 52.2711 28.5058C52.6038 28.8385 53.0276 29.065 53.4889 29.1568C53.9503 29.2485 54.4285 29.2014 54.8631 29.0214C55.2977 28.8414 55.6692 28.5365 55.9305 28.1454C56.1919 27.7543 56.3314 27.2944 56.3314 26.824C56.3303 26.1935 56.0794 25.5892 55.6336 25.1434C55.1878 24.6975 54.5834 24.4466 53.9529 24.4456Z" fill="#BDBCC5"/>
<path d="M32.2529 26.3159H30.8016C30.4819 26.3159 30.2227 26.5751 30.2227 26.8949V34.836C30.2227 35.1558 30.4819 35.415 30.8016 35.415H32.2529C32.5727 35.415 32.8319 35.1558 32.8319 34.836V26.8949C32.8319 26.5751 32.5727 26.3159 32.2529 26.3159Z" fill="#BDBCC5"/>
<path opacity="0.6" d="M32.2529 26.3159H30.8016C30.4819 26.3159 30.2227 26.5751 30.2227 26.8949V34.836C30.2227 35.1558 30.4819 35.415 30.8016 35.415H32.2529C32.5727 35.415 32.8319 35.1558 32.8319 34.836V26.8949C32.8319 26.5751 32.5727 26.3159 32.2529 26.3159Z" fill="white"/>
<path d="M32.2529 62.0898H30.8016C30.4819 62.0898 30.2227 62.349 30.2227 62.6688V70.6099C30.2227 70.9297 30.4819 71.1889 30.8016 71.1889H32.2529C32.5727 71.1889 32.8319 70.9297 32.8319 70.6099V62.6688C32.8319 62.349 32.5727 62.0898 32.2529 62.0898Z" fill="#BDBCC5"/>
<path opacity="0.6" d="M32.2529 62.0898H30.8016C30.4819 62.0898 30.2227 62.349 30.2227 62.6688V70.6099C30.2227 70.9297 30.4819 71.1889 30.8016 71.1889H32.2529C32.5727 71.1889 32.8319 70.9297 32.8319 70.6099V62.6688C32.8319 62.349 32.5727 62.0898 32.2529 62.0898Z" fill="white"/>
<path d="M53.9528 62.0941C61.3201 62.0941 67.2924 56.1218 67.2924 48.7546C67.2924 41.3874 61.3201 35.415 53.9528 35.415C46.5856 35.415 40.6133 41.3874 40.6133 48.7546C40.6133 56.1218 46.5856 62.0941 53.9528 62.0941Z" fill="#BDBCC5"/>
<path opacity="0.6" d="M53.9528 62.0941C61.3201 62.0941 67.2924 56.1218 67.2924 48.7546C67.2924 41.3874 61.3201 35.415 53.9528 35.415C46.5856 35.415 40.6133 41.3874 40.6133 48.7546C40.6133 56.1218 46.5856 62.0941 53.9528 62.0941Z" fill="white"/>
<path d="M47.3521 41.5967L46.7988 42.1499L60.5575 55.9086L61.1107 55.3554L47.3521 41.5967Z" fill="#BDBCC5"/>
<path d="M60.5575 41.5968L46.7988 55.3555L47.3521 55.9087L61.1108 42.15L60.5575 41.5968Z" fill="#BDBCC5"/>
<path opacity="0.2" d="M60.5126 41.5523L46.7539 55.311L47.3071 55.8643L61.0658 42.1055L60.5126 41.5523Z" fill="black"/>
<path opacity="0.2" d="M47.3091 41.5552L46.7559 42.1084L60.5146 55.8671L61.0678 55.3139L47.3091 41.5552Z" fill="black"/>
<path d="M53.9131 58.8354C51.9098 58.8361 49.9513 58.2428 48.2852 57.1304C46.6192 56.018 45.3205 54.4365 44.5533 52.586C43.7862 50.7354 43.585 48.6989 43.9754 46.734C44.3657 44.7692 45.33 42.9642 46.7463 41.5474C48.1625 40.1306 49.9671 39.1656 51.9319 38.7745C53.8966 38.3834 55.9332 38.5837 57.784 39.3502C59.6349 40.1166 61.2169 41.4147 62.3299 43.0803C63.4429 44.7459 64.037 46.7042 64.037 48.7075C64.035 51.3923 62.9678 53.9665 61.0697 55.8653C59.1717 57.7641 56.5978 58.8323 53.9131 58.8354ZM53.9131 39.362C52.0645 39.3612 50.2573 39.9086 48.7199 40.9351C47.1825 41.9615 45.9841 43.4208 45.2761 45.1284C44.5682 46.836 44.3826 48.7152 44.7427 50.5283C45.1029 52.3414 45.9927 54.007 47.2995 55.3144C48.6063 56.6217 50.2715 57.5122 52.0845 57.8731C53.8974 58.234 55.7767 58.0492 57.4846 57.342C59.1925 56.6348 60.6523 55.4369 61.6794 53.9C62.7065 52.363 63.2547 50.556 63.2547 48.7075C63.2526 46.2302 62.2678 43.8549 60.5165 42.1029C58.7652 40.3508 56.3903 39.3651 53.9131 39.362Z" fill="#BDBCC5"/>
<path d="M56.9051 51.7037C58.5596 50.0492 58.5596 47.3668 56.9051 45.7123C55.2506 44.0578 52.5682 44.0578 50.9137 45.7123C49.2592 47.3668 49.2592 50.0492 50.9137 51.7037C52.5682 53.3582 55.2506 53.3582 56.9051 51.7037Z" fill="#BDBCC5"/>
<path opacity="0.2" d="M53.9131 58.8354C51.9098 58.8361 49.9513 58.2428 48.2852 57.1304C46.6192 56.018 45.3205 54.4365 44.5533 52.586C43.7862 50.7354 43.585 48.6989 43.9754 46.734C44.3657 44.7692 45.33 42.9642 46.7463 41.5474C48.1625 40.1306 49.9671 39.1656 51.9319 38.7745C53.8966 38.3834 55.9332 38.5837 57.784 39.3502C59.6349 40.1166 61.2169 41.4147 62.3299 43.0803C63.4429 44.7459 64.037 46.7042 64.037 48.7075C64.035 51.3923 62.9678 53.9665 61.0697 55.8653C59.1717 57.7641 56.5978 58.8323 53.9131 58.8354ZM53.9131 39.362C52.0645 39.3612 50.2573 39.9086 48.7199 40.9351C47.1825 41.9615 45.9841 43.4208 45.2761 45.1284C44.5682 46.836 44.3826 48.7152 44.7427 50.5283C45.1029 52.3414 45.9927 54.007 47.2995 55.3144C48.6063 56.6217 50.2715 57.5122 52.0845 57.8731C53.8974 58.234 55.7767 58.0492 57.4846 57.342C59.1925 56.6348 60.6523 55.4369 61.6794 53.9C62.7065 52.363 63.2547 50.556 63.2547 48.7075C63.2526 46.2302 62.2678 43.8549 60.5165 42.1029C58.7652 40.3508 56.3903 39.3651 53.9131 39.362Z" fill="black"/>
<path opacity="0.2" d="M56.9051 51.7037C58.5596 50.0492 58.5596 47.3668 56.9051 45.7123C55.2506 44.0578 52.5682 44.0578 50.9137 45.7123C49.2592 47.3668 49.2592 50.0492 50.9137 51.7037C52.5682 53.3582 55.2506 53.3582 56.9051 51.7037Z" fill="black"/>
</g>
</svg>