<svg xmlns="http://www.w3.org/2000/svg" width="110" height="110" viewBox="0 0 110 110" fill="none">
<mask id="mask0" mask-type="alpha" maskUnits="userSpaceOnUse" x="0" y="0" width="110" height="110">
<rect width="110" height="110" fill="#C4C4C4"/>
</mask>
<g mask="url(#mask0)">
<path fill-rule="evenodd" clip-rule="evenodd" d="M6.74595 45.3305C10.0008 35.6382 14.3423 26.2665 22.1777 19.6915C30.1118 13.0337 40.0819 9.27091 50.4299 8.67362C60.8209 8.07385 70.7928 11.3358 79.9091 16.3592C89.6427 21.7227 99.1245 28.219 104.005 38.1951C109.146 48.7034 110.739 61.1011 107.258 72.2625C103.848 83.1948 95.0589 91.4863 85.4408 97.7145C76.5689 103.46 66.1058 105.014 55.555 105.743C44.8185 106.484 33.7231 107.113 24.2857 101.939C14.4304 96.5357 6.2865 87.635 2.96299 76.9085C-0.25441 66.5246 3.28645 55.6321 6.74595 45.3305Z" fill="#E9E8EB" stroke="#D4D3D9"/>
<mask id="mask1" mask-type="alpha" maskUnits="userSpaceOnUse" x="-8" y="-3" width="129" height="126">
<path fill-rule="evenodd" clip-rule="evenodd" d="M6.74595 45.3305C10.0008 35.6382 14.3423 26.2665 22.1777 19.6915C30.1118 13.0337 40.0819 9.27091 50.4299 8.67362C60.8209 8.07385 70.7928 11.3358 79.9091 16.3592C89.6427 21.7227 99.1245 28.219 104.005 38.1951C109.146 48.7034 110.739 61.1011 107.258 72.2625C103.848 83.1948 95.0589 91.4863 85.4408 97.7145C76.5689 103.46 66.1058 105.014 55.555 105.743C44.8185 106.484 33.7231 107.113 24.2857 101.939C14.4304 96.5357 6.2865 87.635 2.96299 76.9085C-0.25441 66.5246 3.28645 55.6321 6.74595 45.3305Z" fill="#E9E8EB" stroke="#D4D3D9"/>
</mask>
<g mask="url(#mask1)">
<ellipse cx="52.1367" cy="90.9775" rx="50" ry="5.5" fill="#D4D3D9"/>
</g>
<path d="M86.1883 74.7127L45.0312 55.3079L69.9402 2.47754L100.506 16.8829L106.354 31.9533L86.1883 74.7127Z" fill="#D4D3D9"/>
<path d="M100.505 16.8828L106.354 31.9532L95.7539 26.9537L100.505 16.8828Z" fill="#A8A6B2"/>
<path d="M69.1218 14.6106L92.0078 25.3994L92.6467 24.0442L69.7607 13.2554L69.1218 14.6106Z" fill="#A8A6B2"/>
<path d="M67.5066 18.028L90.3926 28.8169L91.0314 27.4617L68.1455 16.6729L67.5066 18.028Z" fill="#A8A6B2"/>
<path d="M65.8933 21.4563L88.7793 32.2451L89.4182 30.8899L66.5322 20.1011L65.8933 21.4563Z" fill="#A8A6B2"/>
<path d="M64.2768 24.88L97.8086 40.6875L98.4475 39.3323L64.9156 23.5248L64.2768 24.88Z" fill="#A8A6B2"/>
<path d="M62.6577 28.3048L96.1895 44.1123L96.8283 42.7571L63.2965 26.9496L62.6577 28.3048Z" fill="#A8A6B2"/>
<path d="M61.0463 31.733L94.5781 47.5405L95.217 46.1853L61.6852 30.3779L61.0463 31.733Z" fill="#A8A6B2"/>
<path d="M59.4311 35.1505L92.9629 50.958L93.6017 49.6028L60.07 33.7954L59.4311 35.1505Z" fill="#A8A6B2"/>
<path d="M57.8178 38.5788L91.3496 54.3862L91.9885 53.031L58.4566 37.2236L57.8178 38.5788Z" fill="#A8A6B2"/>
<path d="M56.1987 42.0041L89.7305 57.8115L90.3693 56.4563L56.8375 40.6489L56.1987 42.0041Z" fill="#A8A6B2"/>
<path d="M54.5912 45.425L88.123 61.2324L88.7619 59.8772L55.2301 44.0698L54.5912 45.425Z" fill="#A8A6B2"/>
<path d="M52.9721 48.8498L86.5039 64.6572L87.1428 63.302L53.611 47.4946L52.9721 48.8498Z" fill="#A8A6B2"/>
<path d="M51.3627 52.2707L84.8945 68.0781L85.5334 66.7229L52.0016 50.9155L51.3627 52.2707Z" fill="#A8A6B2"/>
<path d="M75.7955 44.3046L13.2578 54.4355L18.0254 92.9305L80.563 82.7995L75.7955 44.3046Z" fill="#A8A6B2"/>
<path d="M32.1916 46.2063L12.6719 49.2583L13.1592 53.0807L33.7948 49.8543L32.1916 46.2063Z" fill="#A8A6B2"/>
<g opacity="0.1">
<path opacity="0.1" d="M76.3299 44.3042L13.2598 55.519L17.4948 92.9301L80.5649 81.7152L76.3299 44.3042Z" fill="black"/>
<path opacity="0.1" d="M32.2478 46.2176L12.6719 49.4731L13.0998 53.0804L33.7948 49.6388L32.2478 46.2176Z" fill="black"/>
</g>
<path d="M65.4958 71.3624L24.3124 78.033L18.1026 27.5605L48.6843 22.6052L60.4657 30.5072L65.4958 71.3624Z" fill="#A8A6B2"/>
<path opacity="0.6" d="M65.4958 71.3624L24.3124 78.033L18.1026 27.5605L48.6843 22.6052L60.4657 30.5072L65.4958 71.3624Z" fill="white"/>
<path d="M47.8733 22.5954L59.5818 30.4516L49.0457 32.157L47.8733 22.5954Z" fill="#A8A6B2"/>
<path opacity="0.4" d="M47.8733 22.5954L59.5818 30.4516L49.0457 32.157L47.8733 22.5954Z" fill="white"/>
<path d="M23.3933 35.9744L45.7168 32.6597L45.5621 31.4875L23.2386 34.8023L23.3933 35.9744Z" fill="white"/>
<path d="M23.87 39.3055L46.1934 35.9907L46.0387 34.8186L23.7153 38.1333L23.87 39.3055Z" fill="white"/>
<path d="M24.3387 42.6458L46.6621 39.3311L46.5074 38.1589L24.184 41.4737L24.3387 42.6458Z" fill="white"/>
<path d="M24.8145 45.9797L57.5059 41.1816L57.3514 40.022L24.66 44.82L24.8145 45.9797Z" fill="white"/>
<path d="M25.2852 49.3196L57.9766 44.5215L57.8221 43.3618L25.1307 48.1599L25.2852 49.3196Z" fill="white"/>
<path d="M25.7598 52.6429L58.4512 47.8447L58.2967 46.685L25.6053 51.4832L25.7598 52.6429Z" fill="white"/>
<path d="M26.2364 55.9822L58.9277 51.1841L58.7732 50.0244L26.0819 54.8225L26.2364 55.9822Z" fill="white"/>
<path d="M26.7051 59.3142L59.3965 54.5161L59.242 53.3564L26.5506 58.1545L26.7051 59.3142Z" fill="white"/>
<path d="M27.1817 62.6535L59.873 57.8555L59.7186 56.6958L27.0272 61.4939L27.1817 62.6535Z" fill="white"/>
<path d="M27.6505 65.9856L60.3418 61.1875L60.1873 60.0278L27.496 64.8259L27.6505 65.9856Z" fill="white"/>
<path d="M28.1192 69.3259L60.8105 64.5278L60.6561 63.3681L27.9647 68.1662L28.1192 69.3259Z" fill="white"/>
<path d="M28.6036 72.656L61.2949 67.8579L61.1404 66.6982L28.4491 71.4963L28.6036 72.656Z" fill="white"/>
<path d="M80.4216 82.7771L18.004 92.8607L9.34375 58.4102L71.7694 48.3253L80.4216 82.7771Z" fill="#A8A6B2"/>
<path d="M27.8778 50.5393L8.36719 53.5767L9.25292 57.007L29.8869 53.7947L27.8778 50.5393Z" fill="#A8A6B2"/>
</g>
</svg>