<svg xmlns="http://www.w3.org/2000/svg" width="110" height="110" viewBox="0 0 110 110" fill="none">
<mask id="mask0" mask-type="alpha" maskUnits="userSpaceOnUse" x="0" y="0" width="110" height="110">
<rect width="110" height="110" fill="#C4C4C4"/>
</mask>
<g mask="url(#mask0)">
<path fill-rule="evenodd" clip-rule="evenodd" d="M104.369 69.4132C102.036 80.0251 95.9391 90.0272 86.8066 95.927C78.1121 101.544 67.1354 99.6135 56.7913 100.149C46.4494 100.685 35.7905 103.632 26.5022 99.0509C16.6585 94.1958 8.93244 85.2121 5.43531 74.8195C2.01572 64.6573 4.02127 53.5642 7.82406 43.5442C11.3427 34.2728 17.736 26.458 25.9193 20.8461C33.633 15.5562 42.9498 14.5923 52.192 13.118C62.6939 11.4427 73.9487 6.60126 83.2862 11.6948C92.7556 16.8601 95.6562 28.7213 99.3536 38.8439C102.986 48.7888 106.64 59.0776 104.369 69.4132Z" fill="#E9E8EB" stroke="#D4D3D9"/>
<mask id="mask1" mask-type="alpha" maskUnits="userSpaceOnUse" x="-6" y="-7" width="125" height="125">
<path fill-rule="evenodd" clip-rule="evenodd" d="M104.371 69.4137C102.038 80.0256 95.941 90.0277 86.8085 95.9275C78.1141 101.544 67.1373 99.614 56.7933 100.15C46.4514 100.686 35.7924 103.633 26.5041 99.0514C16.6604 94.1963 8.93439 85.2126 5.43727 74.82C2.01768 64.6578 4.02322 53.5647 7.82601 43.5447C11.3447 34.2733 17.7379 26.4584 25.9212 20.8466C33.635 15.5567 42.9518 14.5928 52.194 13.1184C62.6959 11.4432 73.9506 6.60174 83.2882 11.6952C92.7575 16.8606 95.6581 28.7218 99.3555 38.8443C102.988 48.7893 106.642 59.0781 104.371 69.4137Z" fill="#E9E8EB" stroke="#D4D3D9"/>
</mask>
<g mask="url(#mask1)">
<ellipse cx="56.1367" cy="94.978" rx="50" ry="3.5" fill="#D4D3D9"/>
</g>
<path d="M86.1367 13.4775H19.1367V80.4775H86.1367V13.4775Z" fill="#92909F"/>
<path d="M65.1367 40.9775C65.1367 43.4501 64.4034 45.8671 63.0296 47.9229C61.6558 49.9787 59.7031 51.5808 57.4186 52.5267C55.1342 53.4726 52.6205 53.7197 50.1955 53.2368C47.7706 52.754 45.5433 51.5627 43.7954 49.8139C42.0475 48.065 40.8576 45.8371 40.376 43.4119C39.8945 40.9866 40.1431 38.4731 41.0903 36.1891C42.0374 33.9052 43.6407 31.9534 45.6972 30.5807C47.7538 29.2081 50.1712 28.4761 52.6438 28.4775C54.285 28.4775 55.9101 28.8009 57.4262 29.4292C58.9424 30.0575 60.3199 30.9783 61.4801 32.1391C62.6403 33.3 63.5604 34.678 64.1878 36.1945C64.8152 37.7111 65.1376 39.3364 65.1367 40.9775Z" fill="#D4D3D9"/>
<path d="M74.1367 75.8669V80.4775H31.1367V75.8669C31.1367 69.9289 33.4019 64.2341 37.4339 60.0352C41.466 55.8364 46.9346 53.4775 52.6367 53.4775C58.3389 53.4775 63.8075 55.8364 67.8395 60.0352C71.8715 64.2341 74.1367 69.9289 74.1367 75.8669Z" fill="#D4D3D9"/>
<path d="M89.9716 80.4562C95.0337 75.3941 95.0337 67.1869 89.9716 62.1249C84.9096 57.0628 76.7024 57.0628 71.6403 62.1248C66.5782 67.1869 66.5782 75.3941 71.6403 80.4562C76.7023 85.5183 84.9096 85.5182 89.9716 80.4562Z" fill="#BDBCC5"/>
</g>
</svg>