<svg xmlns="http://www.w3.org/2000/svg" width="110" height="110" viewBox="0 0 110 110" fill="none">
<mask id="mask0" mask-type="alpha" maskUnits="userSpaceOnUse" x="0" y="0" width="110" height="110">
<rect width="110" height="110" fill="#C4C4C4"/>
</mask>
<g mask="url(#mask0)">
<path fill-rule="evenodd" clip-rule="evenodd" d="M55.6778 13.5282C65.4627 12.9541 74.6606 17.3363 82.8407 22.7154C91.3511 28.3117 99.3057 35.1717 102.993 44.6422C106.806 54.4362 107.416 65.6925 103.346 75.3831C99.4313 84.7013 90.4004 90.4687 81.6196 95.5215C73.6444 100.111 64.8877 102.722 55.6778 102.813C46.3897 102.905 37.3562 100.744 29.3585 96.039C20.6977 90.9434 12.3095 84.5109 8.6845 75.1648C4.95811 65.5571 5.37335 54.4454 9.57624 45.0349C13.5583 36.1187 22.6658 31.2928 30.7442 25.7718C38.5766 20.419 46.1955 14.0845 55.6778 13.5282Z" fill="#E9E8EB" stroke="#D4D3D9"/>
<mask id="mask1" mask-type="alpha" maskUnits="userSpaceOnUse" x="5" y="12" width="102" height="92">
<path fill-rule="evenodd" clip-rule="evenodd" d="M55.6778 13.5282C65.4627 12.9541 74.6606 17.3363 82.8407 22.7154C91.3511 28.3117 99.3057 35.1717 102.993 44.6422C106.806 54.4362 107.416 65.6925 103.346 75.3831C99.4313 84.7013 90.4004 90.4687 81.6196 95.5215C73.6444 100.111 64.8877 102.722 55.6778 102.813C46.3897 102.905 37.3562 100.744 29.3585 96.039C20.6977 90.9434 12.3095 84.5109 8.6845 75.1648C4.95811 65.5571 5.37335 54.4454 9.57624 45.0349C13.5583 36.1187 22.6658 31.2928 30.7442 25.7718C38.5766 20.419 46.1955 14.0845 55.6778 13.5282Z" fill="#E9E8EB" stroke="#D4D3D9"/>
</mask>
<g mask="url(#mask1)">
<ellipse cx="52.1367" cy="88.9775" rx="50" ry="3.5" fill="#D4D3D9"/>
</g>
<path d="M87.1367 9.47754H20.1367V76.4775H87.1367V9.47754Z" fill="#92909F"/>
<path d="M66.1367 36.9775C66.1367 39.4501 65.4034 41.8671 64.0296 43.9229C62.6558 45.9787 60.7031 47.5808 58.4186 48.5267C56.1342 49.4726 53.6205 49.7197 51.1955 49.2368C48.7706 48.754 46.5433 47.5627 44.7954 45.8139C43.0475 44.065 41.8576 41.8371 41.376 39.4119C40.8945 36.9866 41.1431 34.4731 42.0903 32.1891C43.0374 29.9052 44.6407 27.9534 46.6972 26.5807C48.7538 25.2081 51.1712 24.4761 53.6438 24.4775C55.285 24.4775 56.9101 24.8009 58.4262 25.4292C59.9424 26.0575 61.3199 26.9783 62.4801 28.1391C63.6403 29.3 64.5604 30.678 65.1878 32.1945C65.8152 33.7111 66.1376 35.3364 66.1367 36.9775Z" fill="#D4D3D9"/>
<path d="M75.1367 71.8669V76.4775H32.1367V71.8669C32.1367 65.9289 34.4019 60.2341 38.4339 56.0352C42.466 51.8364 47.9346 49.4775 53.6367 49.4775C59.3389 49.4775 64.8075 51.8364 68.8395 56.0352C72.8715 60.2341 75.1367 65.9289 75.1367 71.8669Z" fill="#D4D3D9"/>
<path d="M90.9716 76.4562C96.0337 71.3941 96.0337 63.1869 90.9716 58.1249C85.9096 53.0628 77.7024 53.0628 72.6403 58.1248C67.5782 63.1869 67.5782 71.3941 72.6403 76.4562C77.7023 81.5183 85.9096 81.5182 90.9716 76.4562Z" fill="#BDBCC5"/>
</g>
</svg>