<svg xmlns="http://www.w3.org/2000/svg" width="110" height="110" viewBox="0 0 110 110" fill="none">
<mask id="mask0" mask-type="alpha" maskUnits="userSpaceOnUse" x="0" y="0" width="110" height="110">
<rect width="110" height="110" fill="#C4C4C4"/>
</mask>
<g mask="url(#mask0)">
<path fill-rule="evenodd" clip-rule="evenodd" d="M53.6647 9.68251C64.0303 10.4291 74.4607 10.4748 83.4959 15.6086C93.3172 21.1889 103.091 28.7323 106.267 39.5707C109.413 50.3052 103.259 61.0087 99.9294 71.6875C96.5504 82.5239 96.0716 95.707 86.7448 102.179C77.4481 108.631 64.9426 104.729 53.6647 103.793C43.4179 102.941 32.6652 103.045 24.351 96.9964C16.0396 90.9505 11.6616 81.0999 8.87236 71.2092C6.1733 61.6385 6.97793 51.8697 8.87166 42.1077C11.029 30.9866 11.3603 17.7175 20.538 11.0738C29.7144 4.43117 42.3648 8.8686 53.6647 9.68251Z" fill="#E9E8EB" stroke="#D4D3D9"/>
<mask id="mask1" mask-type="alpha" maskUnits="userSpaceOnUse" x="6" y="6" width="102" height="101">
<path fill-rule="evenodd" clip-rule="evenodd" d="M53.6647 9.68251C64.0303 10.4291 74.4607 10.4748 83.4959 15.6086C93.3172 21.1889 103.091 28.7323 106.267 39.5707C109.413 50.3052 103.259 61.0087 99.9294 71.6875C96.5504 82.5239 96.0716 95.707 86.7448 102.179C77.4481 108.631 64.9426 104.729 53.6647 103.793C43.4179 102.941 32.6652 103.045 24.351 96.9964C16.0396 90.9505 11.6616 81.0999 8.87236 71.2092C6.1733 61.6385 6.97793 51.8697 8.87166 42.1077C11.029 30.9866 11.3603 17.7175 20.538 11.0738C29.7144 4.43117 42.3648 8.8686 53.6647 9.68251Z" fill="#E9E8EB" stroke="#D4D3D9"/>
</mask>
<g mask="url(#mask1)">
<ellipse cx="53.1367" cy="91.9775" rx="50" ry="3.5" fill="#D4D3D9"/>
</g>
<path fill-rule="evenodd" clip-rule="evenodd" d="M48.2147 20.503C48.6603 22.1113 48.8896 23.7718 48.8966 25.4407L52.9881 27.5959L50.9833 34.9547L46.3599 34.7774C45.5293 36.2236 44.5113 37.5536 43.3323 38.7331L44.6961 43.1456L38.0748 46.9649L34.938 43.5548C33.3276 44.0005 31.6651 44.2299 29.9942 44.2369L27.8462 48.3289L20.4612 46.3579L20.6384 41.7339C19.1913 40.9049 17.8613 39.8865 16.6834 38.7058L12.2715 40.0698L8.44599 33.4475L11.8555 30.3103C11.4318 28.7104 11.2209 27.0616 11.2282 25.4066L7.13672 23.2583L9.08016 15.8585L13.6967 16.0358C14.528 14.5883 15.5484 13.2581 16.7311 12.0802L15.3673 7.66762L21.9886 3.84155L25.1254 7.25159C26.7334 6.80581 28.3937 6.57646 30.0624 6.56958L32.2172 2.47754L39.6023 4.45536L39.425 9.07255C40.8711 9.90573 42.2009 10.9262 43.38 12.1075L47.792 10.7435L51.6106 17.3658L48.2011 20.503H48.2147ZM37.3042 21.6147C36.4918 20.2164 35.2834 19.0903 33.8316 18.3783C32.3798 17.6664 30.7496 17.4006 29.1469 17.6145C27.5441 17.8284 26.0407 18.5124 24.8263 19.5802C23.6119 20.648 22.7411 22.0517 22.3237 23.614C21.9063 25.1764 21.9611 26.8274 22.4811 28.3587C23.0011 29.89 23.9631 31.2328 25.2455 32.2178C26.528 33.2027 28.0735 33.7856 29.6869 33.8928C31.3002 33.9999 32.9092 33.6267 34.3107 32.82C35.2446 32.2825 36.0631 31.5658 36.7194 30.7111C37.3756 29.8564 37.8566 28.8804 38.1348 27.8393C38.4129 26.7982 38.4827 25.7123 38.3402 24.6441C38.1977 23.5759 37.8456 22.5464 37.3042 21.6147Z" fill="#7D7A8C"/>
<path fill-rule="evenodd" clip-rule="evenodd" d="M90.3647 37.9594C90.7137 39.2392 90.8887 40.5601 90.8851 41.8866L94.1374 43.597L92.5626 49.4672L88.8926 49.3235C88.2325 50.4747 87.422 51.5331 86.4825 52.4707L87.5712 55.9737L82.3059 59.0114L79.8411 56.3226C78.5598 56.6683 77.2381 56.8409 75.911 56.8358L74.1992 60.0856L68.3246 58.5188L68.4616 54.8448C67.3105 54.1868 66.2534 53.3767 65.3188 52.4365L61.8064 53.5244L58.7664 48.2631L61.464 45.7727C61.1193 44.492 60.9443 43.1717 60.9437 41.8455L57.6914 40.1351L59.2662 34.2649L62.9361 34.4085C63.5951 33.2566 64.4057 32.1981 65.3462 31.2613L64.2576 27.7584L69.5228 24.7138L72.0219 27.4094C73.3033 27.0639 74.6248 26.889 75.952 26.8895L77.6638 23.6396L83.5384 25.2132L83.3946 28.8804C84.5443 29.5432 85.6011 30.3553 86.5373 31.2956L90.0498 30.2009L93.0624 35.4622L90.3647 37.9594ZM81.6897 38.842C81.0461 37.7235 80.0848 36.8209 78.9275 36.2486C77.7702 35.6762 76.469 35.4599 75.1887 35.6269C73.9083 35.7938 72.7062 36.3367 71.7348 37.1867C70.7633 38.0366 70.066 39.1555 69.7312 40.4016C69.3964 41.6478 69.4392 42.9652 69.854 44.1871C70.2689 45.4089 71.0372 46.4803 72.0617 47.2656C73.0863 48.0509 74.3209 48.5148 75.6095 48.5986C76.898 48.6824 78.1824 48.3823 79.3002 47.7363C80.7957 46.8719 81.8871 45.4501 82.3351 43.7828C82.783 42.1154 82.551 40.3386 81.6897 38.842Z" fill="#BDBCC5"/>
<path fill-rule="evenodd" clip-rule="evenodd" d="M83.0268 75.9627C83.1856 76.5422 83.2652 77.1404 83.2635 77.7412L84.7309 78.5121L84.0209 81.1697L82.3641 81.1021C82.0629 81.6217 81.697 82.1011 81.2754 82.5289L81.7691 84.1113L79.3887 85.4638L78.2594 84.2466C77.68 84.4053 77.0817 84.4849 76.4809 84.4833L75.71 85.9507L73.0524 85.2406L73.1201 83.5839C72.6014 83.2842 72.1241 82.9182 71.7 82.4951L70.1108 82.982L68.7584 80.6084L69.9756 79.4791C69.8202 78.899 69.7407 78.3012 69.7389 77.7007L68.2715 76.9298L68.9815 74.2722L70.6451 74.3398C70.9419 73.8172 71.3081 73.3372 71.7338 72.9129L71.2401 71.3306L73.6205 69.9781L74.743 71.1953C75.3225 71.0366 75.9207 70.957 76.5215 70.9586L77.2924 69.4912L79.95 70.1674L79.8824 71.8242C80.4046 72.1242 80.8845 72.4926 81.3092 72.9197L82.8916 72.4261L84.2441 74.8064L83.0201 75.9289L83.0268 75.9627ZM79.1047 76.3617C78.8092 75.8609 78.3723 75.4587 77.8488 75.2056C77.3254 74.9525 76.7387 74.8598 76.1627 74.9392C75.5867 75.0186 75.0471 75.2666 74.6116 75.6519C74.1761 76.0372 73.8643 76.5426 73.7154 77.1047C73.5665 77.6668 73.587 78.2603 73.7745 78.8107C73.962 79.3611 74.3081 79.8437 74.7691 80.198C75.2302 80.5522 75.7858 80.7622 76.3659 80.8016C76.946 80.8409 77.5248 80.7078 78.0295 80.4191C78.3685 80.2252 78.6655 79.9659 78.9034 79.6562C79.1413 79.3465 79.3153 78.9927 79.4154 78.6152C79.5154 78.2377 79.5394 77.8441 79.4861 77.4573C79.4328 77.0704 79.3031 76.698 79.1047 76.3617Z" fill="#BDBCC5"/>
<path fill-rule="evenodd" clip-rule="evenodd" d="M55.7266 67.4209C56.0191 68.4941 56.1667 69.6015 56.1655 70.7138L58.8664 72.1444L57.5497 77.0703L54.4639 76.9488C53.9098 77.9148 53.2285 78.8022 52.4382 79.5872L53.3498 82.5292L48.9338 85.0799L46.8473 82.8194C45.7714 83.1124 44.6606 83.2577 43.5455 83.2513L42.114 85.9504L37.1848 84.6008L37.3064 81.5238C36.341 80.9681 35.4533 80.2874 34.6662 79.4995L31.7222 80.4172L29.1766 76.0041L31.4319 73.9123C31.1448 72.8382 30.9995 71.7311 30.9997 70.6194L28.2988 69.1821L29.6155 64.2629L32.7013 64.3776C33.2555 63.4137 33.9369 62.5286 34.727 61.746L33.8154 58.804L38.2314 56.2533L40.3179 58.5138C41.3938 58.2208 42.5046 58.0755 43.6197 58.0819L45.0512 55.3828L49.9804 56.7324L49.8589 59.8094C50.8244 60.3649 51.7121 61.0456 52.499 61.8337L55.443 60.9228L57.9886 65.3358L55.7266 67.4276V67.4209ZM48.4814 68.1632C47.9423 67.2266 47.1376 66.4707 46.1688 65.991C45.2001 65.5113 44.1108 65.3292 43.0386 65.4679C41.9664 65.6065 40.9593 66.0596 40.1447 66.7699C39.33 67.4802 38.7443 68.4159 38.4615 69.4587C38.1787 70.5016 38.2115 71.6048 38.5558 72.629C38.9001 73.6531 39.5404 74.5524 40.3959 75.2131C41.2513 75.8738 42.2835 76.2663 43.3621 76.341C44.4407 76.4158 45.5172 76.1694 46.4557 75.633C47.0802 75.2761 47.6281 74.7996 48.068 74.2307C48.5079 73.6619 48.8312 73.0119 49.0193 72.3181C49.2075 71.6242 49.2568 70.9 49.1645 70.1871C49.0722 69.4741 48.8401 68.7863 48.4814 68.1632Z" fill="#D4D3D9"/>
</g>
</svg>