<svg xmlns="http://www.w3.org/2000/svg" width="110" height="110" viewBox="0 0 110 110" fill="none">
<mask id="mask0" mask-type="alpha" maskUnits="userSpaceOnUse" x="0" y="0" width="110" height="110">
<rect width="110" height="110" fill="#C4C4C4"/>
</mask>
<g mask="url(#mask0)">
<path fill-rule="evenodd" clip-rule="evenodd" d="M57.2901 100.674C47.6366 101.073 38.1858 99.2872 29.635 94.815C19.9354 89.7419 8.31878 84.2229 5.63599 73.6582C2.96378 63.1352 11.6507 53.4841 16.6953 43.8591C20.8523 35.9277 25.115 28.1586 32.3022 22.7796C39.5862 17.3282 48.173 13.4857 57.2902 13.4775C66.4125 13.4693 74.5219 18.0139 82.311 22.7346C90.7902 27.8736 100.905 32.5037 104.104 41.8501C107.314 51.227 102.354 61.142 98.5973 70.3159C95.1031 78.849 90.7765 87.1204 83.3245 92.5972C75.8309 98.1046 66.601 100.29 57.2901 100.674Z" fill="#E9E8EB" stroke="#D4D3D9"/>
<mask id="mask1" mask-type="alpha" maskUnits="userSpaceOnUse" x="4" y="12" width="102" height="90">
<path fill-rule="evenodd" clip-rule="evenodd" d="M57.2901 100.674C47.6366 101.073 38.1858 99.2872 29.635 94.815C19.9354 89.7419 8.31878 84.2229 5.63599 73.6582C2.96378 63.1352 11.6507 53.4841 16.6953 43.8591C20.8523 35.9277 25.115 28.1586 32.3022 22.7796C39.5862 17.3282 48.173 13.4857 57.2902 13.4775C66.4125 13.4693 74.5219 18.0139 82.311 22.7346C90.7902 27.8736 100.905 32.5037 104.104 41.8501C107.314 51.227 102.354 61.142 98.5973 70.3159C95.1031 78.849 90.7765 87.1204 83.3245 92.5972C75.8309 98.1046 66.601 100.29 57.2901 100.674Z" fill="#E9E8EB" stroke="#D4D3D9"/>
</mask>
<g mask="url(#mask1)">
<path d="M133.779 68.0555V59.4775L-111.863 59.4775V68.0555L133.779 68.0555Z" fill="#D4D3D9"/>
<path d="M68.3105 68.0742H109.418V87.3282H88.8642C88.8642 84.9892 87.9351 82.746 86.2811 81.092C84.6272 79.4381 82.3839 78.5089 80.0449 78.5089H68.3105V68.0742Z" fill="#92909F"/>
<path d="M86.8789 68.0742H116.846V87.3282H107.433C107.433 84.9892 106.503 82.746 104.849 81.092C103.196 79.4381 100.952 78.5089 98.6132 78.5089H86.8789V68.0742Z" fill="#D4D3D9"/>
<ellipse cx="51.1367" cy="91.9775" rx="50" ry="3.5" fill="#D4D3D9"/>
</g>
<path d="M31.9629 32.6302C32.1434 25.898 34.9446 19.5021 39.7701 14.8042C44.5956 10.1063 51.0643 7.47754 57.799 7.47754C64.5336 7.47754 71.0023 10.1063 75.8278 14.8042C80.6533 19.5021 83.4545 25.898 83.635 32.6302V59.3482H31.9629V32.6302Z" fill="#BDBCC5"/>
<path d="M77.4156 37.2383C79.9761 26.39 73.2574 15.52 62.409 12.9596C51.5607 10.3991 40.6907 17.1178 38.1302 27.9661C35.5698 38.8145 42.2885 49.6845 53.1368 52.245C63.9852 54.8054 74.8552 48.0867 77.4156 37.2383Z" fill="#FAFAFA"/>
<path d="M57.8074 15.6227C62.8769 15.6255 67.7593 17.5377 71.4823 20.9785C75.2052 24.4193 77.4955 29.1362 77.8969 34.1898C77.8969 33.6699 77.9898 33.1501 77.9898 32.6116C77.9898 27.2589 75.8635 22.1254 72.0785 18.3405C68.2936 14.5555 63.1601 12.4292 57.8074 12.4292C52.4547 12.4292 47.3212 14.5555 43.5363 18.3405C39.7513 22.1254 37.625 27.2589 37.625 32.6116C37.625 33.1501 37.625 33.6699 37.625 34.1898C38.0277 29.1202 40.3311 24.3901 44.0738 20.9469C47.8164 17.5038 52.722 15.6021 57.8074 15.6227Z" fill="#BDBCC5"/>
<path d="M70.4895 32.6115H59.8877V22.0097C59.8877 21.4434 59.6628 20.9003 59.2623 20.4999C58.8619 20.0995 58.3188 19.8745 57.7525 19.8745C57.1862 19.8745 56.6431 20.0995 56.2426 20.4999C55.8422 20.9003 55.6173 21.4434 55.6173 22.0097V34.7467C55.6148 35.0278 55.6684 35.3066 55.7748 35.5668C55.8812 35.8269 56.0384 36.0633 56.2372 36.2621C56.4359 36.4608 56.6723 36.618 56.9325 36.7244C57.1926 36.8309 57.4714 36.8844 57.7525 36.8819H70.4895C71.0558 36.8819 71.5989 36.657 71.9993 36.2565C72.3997 35.8561 72.6247 35.313 72.6247 34.7467C72.6247 34.1804 72.3997 33.6373 71.9993 33.2369C71.5989 32.8365 71.0558 32.6115 70.4895 32.6115Z" fill="#BDBCC5"/>
<path d="M70.4894 34.7655C71.0557 34.7655 71.5988 34.5406 71.9992 34.1401C72.3997 33.7397 72.6246 33.1966 72.6246 32.6303C72.6246 32.064 72.3997 31.5209 71.9992 31.1205C71.5988 30.7201 71.0557 30.4951 70.4894 30.4951H57.7524C57.1862 30.4951 56.643 30.7201 56.2426 31.1205C55.8421 31.5209 55.6172 32.064 55.6172 32.6303C55.6172 33.1966 55.8421 33.7397 56.2426 34.1401C56.643 34.5406 57.1862 34.7655 57.7524 34.7655H70.4894Z" fill="#F5F5F5"/>
<path d="M59.9443 19.8745C59.9443 19.3082 59.7193 18.7651 59.3189 18.3647C58.9185 17.9642 58.3754 17.7393 57.8091 17.7393C57.2428 17.7393 56.6997 17.9642 56.2993 18.3647C55.8988 18.7651 55.6738 19.3082 55.6738 19.8745V32.63C55.6738 33.1963 55.8988 33.7394 56.2993 34.1399C56.6997 34.5403 57.2428 34.7652 57.8091 34.7652C58.3754 34.7652 58.9185 34.5403 59.3189 34.1399C59.7193 33.7394 59.9443 33.1963 59.9443 32.63V19.8745Z" fill="#EBEBEB"/>
</g>
</svg>