<svg xmlns="http://www.w3.org/2000/svg" width="110" height="110" viewBox="0 0 110 110" fill="none">
<mask id="mask0" mask-type="alpha" maskUnits="userSpaceOnUse" x="0" y="0" width="110" height="110">
<rect width="110" height="110" fill="#C4C4C4"/>
</mask>
<g mask="url(#mask0)">
<path fill-rule="evenodd" clip-rule="evenodd" d="M56.8767 6.6935C67.4327 5.6704 78.5252 8.26265 86.8175 14.8933C94.9306 21.3806 97.6534 31.9947 100.885 41.8835C104.127 51.8004 107.586 61.8467 105.506 72.0722C103.263 83.0963 98.4293 94.4821 88.9579 100.511C79.6745 106.421 67.8718 103.117 56.8767 103.029C45.9931 102.941 34.0667 106.282 25.1676 99.9977C16.2371 93.6908 14.6239 81.5084 11.5292 71.0028C8.52547 60.8065 3.74818 50.0761 7.53617 40.146C11.2699 30.3582 22.2078 26.1854 30.8643 20.3163C39.1714 14.6842 46.8961 7.66082 56.8767 6.6935Z" fill="#E9E8EB" stroke="#D4D3D9"/>
<mask id="mask1" mask-type="alpha" maskUnits="userSpaceOnUse" x="5" y="5" width="102" height="100">
<path fill-rule="evenodd" clip-rule="evenodd" d="M56.8767 6.6935C67.4327 5.6704 78.5252 8.26265 86.8175 14.8933C94.9306 21.3806 97.6534 31.9947 100.885 41.8835C104.127 51.8004 107.586 61.8467 105.506 72.0722C103.263 83.0963 98.4293 94.4821 88.9579 100.511C79.6745 106.421 67.8718 103.117 56.8767 103.029C45.9931 102.941 34.0667 106.282 25.1676 99.9977C16.2371 93.6908 14.6239 81.5084 11.5292 71.0028C8.52547 60.8065 3.74818 50.0761 7.53617 40.146C11.2699 30.3582 22.2078 26.1854 30.8643 20.3163C39.1714 14.6842 46.8961 7.66082 56.8767 6.6935Z" fill="#E9E8EB" stroke="#D4D3D9"/>
</mask>
<g mask="url(#mask1)">
<ellipse cx="60.1367" cy="93.4775" rx="50" ry="4" fill="#D4D3D9"/>
</g>
<path d="M86.1367 10.4775H19.1367V77.4775H86.1367V10.4775Z" fill="#92909F"/>
<path d="M65.1367 37.9775C65.1367 40.4501 64.4034 42.8671 63.0296 44.9229C61.6558 46.9787 59.7031 48.5808 57.4186 49.5267C55.1342 50.4726 52.6205 50.7197 50.1955 50.2368C47.7706 49.754 45.5433 48.5627 43.7954 46.8139C42.0475 45.065 40.8576 42.8371 40.376 40.4119C39.8945 37.9866 40.1431 35.4731 41.0903 33.1891C42.0374 30.9052 43.6407 28.9534 45.6972 27.5807C47.7538 26.2081 50.1712 25.4761 52.6438 25.4775C54.285 25.4775 55.9101 25.8009 57.4262 26.4292C58.9424 27.0575 60.3199 27.9783 61.4801 29.1391C62.6403 30.3 63.5604 31.678 64.1878 33.1945C64.8152 34.7111 65.1376 36.3364 65.1367 37.9775Z" fill="#D4D3D9"/>
<path d="M74.1367 72.8669V77.4775H31.1367V72.8669C31.1367 66.9289 33.4019 61.2341 37.4339 57.0352C41.466 52.8364 46.9346 50.4775 52.6367 50.4775C58.3389 50.4775 63.8075 52.8364 67.8395 57.0352C71.8715 61.2341 74.1367 66.9289 74.1367 72.8669Z" fill="#D4D3D9"/>
<path d="M89.9716 77.4562C95.0337 72.3941 95.0337 64.1869 89.9716 59.1249C84.9096 54.0628 76.7024 54.0628 71.6403 59.1248C66.5782 64.1869 66.5782 72.3941 71.6403 77.4562C76.7023 82.5183 84.9096 82.5182 89.9716 77.4562Z" fill="#BDBCC5"/>
</g>
</svg>