<svg xmlns="http://www.w3.org/2000/svg" width="110" height="110" viewBox="0 0 110 110" fill="none">
<mask id="mask0" mask-type="alpha" maskUnits="userSpaceOnUse" x="0" y="0" width="110" height="110">
<rect width="110" height="110" fill="#C4C4C4"/>
</mask>
<g mask="url(#mask0)">
<path fill-rule="evenodd" clip-rule="evenodd" d="M66.9737 103.506C57.7878 105.367 48.4353 104.914 39.6044 101.797C30.5821 98.6123 22.6829 93.1856 16.6793 85.7517C10.1336 77.6466 3.22518 68.3203 4.19192 57.9482C5.14948 47.6745 15.287 41.41 21.5761 33.2133C28.106 24.7029 31.3763 12.1266 41.6763 9.09475C51.9961 6.05706 62.2099 13.4385 71.7116 18.4557C80.1101 22.8903 87.1975 28.7705 93.0629 36.2285C99.483 44.3917 106.944 52.8735 106.946 63.2565C106.948 73.8354 100.539 83.4474 93.0717 90.9665C86.104 97.9825 76.671 101.541 66.9737 103.506Z" fill="#E9E8EB" stroke="#D4D3D9"/>
<mask id="mask1" mask-type="alpha" maskUnits="userSpaceOnUse" x="-8" y="-5" width="124" height="123">
<path fill-rule="evenodd" clip-rule="evenodd" d="M66.9737 103.506C57.7878 105.367 48.4353 104.915 39.6044 101.798C30.5821 98.6127 22.6829 93.1861 16.6793 85.7522C10.1336 77.6471 3.22518 68.3208 4.19192 57.9487C5.14948 47.675 15.287 41.4105 21.5761 33.2138C28.106 24.7034 31.3763 12.1271 41.6763 9.09524C51.9961 6.05754 62.2099 13.4389 71.7116 18.4561C80.1101 22.8908 87.1975 28.771 93.0629 36.2289C99.483 44.3922 106.944 52.874 106.946 63.257C106.948 73.8359 100.539 83.4479 93.0717 90.967C86.104 97.983 76.671 101.542 66.9737 103.506Z" fill="#E9E8EB" stroke="#D4D3D9"/>
</mask>
<g mask="url(#mask1)">
<ellipse cx="58.1367" cy="86.978" rx="50" ry="3.5" fill="#D4D3D9"/>
</g>
<path d="M85.1367 6.47754H18.1367V73.4775H85.1367V6.47754Z" fill="#92909F"/>
<path d="M64.1367 33.9775C64.1367 36.4501 63.4034 38.8671 62.0296 40.9229C60.6558 42.9787 58.7031 44.5808 56.4186 45.5267C54.1342 46.4726 51.6205 46.7197 49.1955 46.2368C46.7706 45.754 44.5433 44.5627 42.7954 42.8139C41.0475 41.065 39.8576 38.8371 39.376 36.4119C38.8945 33.9866 39.1431 31.4731 40.0903 29.1891C41.0374 26.9052 42.6407 24.9534 44.6972 23.5807C46.7538 22.2081 49.1712 21.4761 51.6438 21.4775C53.285 21.4775 54.9101 21.8009 56.4262 22.4292C57.9424 23.0575 59.3199 23.9783 60.4801 25.1391C61.6403 26.3 62.5604 27.678 63.1878 29.1945C63.8152 30.7111 64.1376 32.3364 64.1367 33.9775Z" fill="#D4D3D9"/>
<path d="M73.1367 68.8669V73.4775H30.1367V68.8669C30.1367 62.9289 32.4019 57.2341 36.4339 53.0352C40.466 48.8364 45.9346 46.4775 51.6367 46.4775C57.3389 46.4775 62.8075 48.8364 66.8395 53.0352C70.8715 57.2341 73.1367 62.9289 73.1367 68.8669Z" fill="#D4D3D9"/>
<path d="M88.9716 73.4562C94.0337 68.3941 94.0337 60.1869 88.9716 55.1249C83.9096 50.0628 75.7024 50.0628 70.6403 55.1248C65.5782 60.1869 65.5782 68.3941 70.6403 73.4562C75.7023 78.5183 83.9096 78.5182 88.9716 73.4562Z" fill="#BDBCC5"/>
</g>
</svg>