<svg xmlns="http://www.w3.org/2000/svg" width="110" height="110" viewBox="0 0 110 110" fill="none">
<mask id="mask0" mask-type="alpha" maskUnits="userSpaceOnUse" x="0" y="0" width="110" height="110">
<rect width="110" height="110" fill="#C4C4C4"/>
</mask>
<g mask="url(#mask0)">
<path fill-rule="evenodd" clip-rule="evenodd" d="M57.3253 8.59073C67.8065 7.91598 78.5558 10.2264 87.053 16.3708C95.5503 22.5152 100.435 32.1619 103.674 42.1058C106.912 52.0445 108.662 62.7102 105.383 72.6356C102.111 82.5408 94.6796 90.563 85.8255 96.1365C77.3653 101.462 67.3088 102.158 57.3253 102.887C46.4887 103.679 34.5678 106.662 25.6138 100.536C16.6088 94.3744 14.8959 82.2445 11.8779 71.7915C8.97024 61.7208 5.00442 51.1884 8.51371 41.3094C11.9879 31.5291 21.6213 25.8213 30.2662 20.0266C38.5979 14.4418 47.3013 9.23605 57.3253 8.59073Z" fill="#E9E8EB" stroke="#D4D3D9"/>
<mask id="mask1" mask-type="alpha" maskUnits="userSpaceOnUse" x="6" y="7" width="102" height="98">
<path fill-rule="evenodd" clip-rule="evenodd" d="M57.3253 8.59073C67.8065 7.91598 78.5558 10.2264 87.053 16.3708C95.5503 22.5152 100.435 32.1619 103.674 42.1058C106.912 52.0445 108.662 62.7102 105.383 72.6356C102.111 82.5408 94.6796 90.563 85.8255 96.1365C77.3653 101.462 67.3088 102.158 57.3253 102.887C46.4887 103.679 34.5678 106.662 25.6138 100.536C16.6088 94.3744 14.8959 82.2445 11.8779 71.7915C8.97024 61.7208 5.00442 51.1884 8.51371 41.3094C11.9879 31.5291 21.6213 25.8213 30.2662 20.0266C38.5979 14.4418 47.3013 9.23605 57.3253 8.59073Z" fill="#E9E8EB" stroke="#D4D3D9"/>
</mask>
<g mask="url(#mask1)">
<ellipse cx="53.1367" cy="90.9775" rx="50" ry="3.5" fill="#D4D3D9"/>
</g>
<path d="M88.1367 10.4775H21.1367V77.4775H88.1367V10.4775Z" fill="#92909F"/>
<path d="M67.1367 37.9775C67.1367 40.4501 66.4034 42.8671 65.0296 44.9229C63.6558 46.9787 61.7031 48.5808 59.4186 49.5267C57.1342 50.4726 54.6205 50.7197 52.1955 50.2368C49.7706 49.754 47.5433 48.5627 45.7954 46.8139C44.0475 45.065 42.8576 42.8371 42.376 40.4119C41.8945 37.9866 42.1431 35.4731 43.0903 33.1891C44.0374 30.9052 45.6407 28.9534 47.6972 27.5807C49.7538 26.2081 52.1712 25.4761 54.6438 25.4775C56.285 25.4775 57.9101 25.8009 59.4262 26.4292C60.9424 27.0575 62.3199 27.9783 63.4801 29.1391C64.6403 30.3 65.5604 31.678 66.1878 33.1945C66.8152 34.7111 67.1376 36.3364 67.1367 37.9775Z" fill="#D4D3D9"/>
<path d="M76.1367 72.8669V77.4775H33.1367V72.8669C33.1367 66.9289 35.4019 61.2341 39.4339 57.0352C43.466 52.8364 48.9346 50.4775 54.6367 50.4775C60.3389 50.4775 65.8075 52.8364 69.8395 57.0352C73.8715 61.2341 76.1367 66.9289 76.1367 72.8669Z" fill="#D4D3D9"/>
<path d="M91.9716 77.4562C97.0337 72.3941 97.0337 64.1869 91.9716 59.1249C86.9096 54.0628 78.7024 54.0628 73.6403 59.1248C68.5782 64.1869 68.5782 72.3941 73.6403 77.4562C78.7023 82.5183 86.9096 82.5182 91.9716 77.4562Z" fill="#BDBCC5"/>
</g>
</svg>