<svg xmlns="http://www.w3.org/2000/svg" width="110" height="110" viewBox="0 0 110 110" fill="none">
<mask id="mask0" mask-type="alpha" maskUnits="userSpaceOnUse" x="0" y="0" width="110" height="110">
<rect width="110" height="110" fill="#C4C4C4"/>
</mask>
<g mask="url(#mask0)">
<path fill-rule="evenodd" clip-rule="evenodd" d="M56.6746 11.4798C65.6001 11.5327 74.1645 13.4291 82.0803 17.5509C91.1861 22.2925 101.917 27.0179 105.193 36.7436C108.474 46.4857 102.468 56.6063 98.4159 66.0543C94.73 74.6491 89.8838 82.3631 82.9406 88.6311C75.2565 95.568 67.0091 103.089 56.6746 103.737C46.0868 104.4 36.5915 98.1616 27.9017 92.0798C19.0671 85.8967 9.16522 79.2247 6.66836 68.7382C4.22233 58.4653 10.7568 48.6006 15.2764 39.0557C19.2116 30.7449 23.394 22.3477 31.0492 17.2485C38.5178 12.2735 47.6993 11.4266 56.6746 11.4798Z" fill="#E9E8EB" stroke="#D4D3D9"/>
<mask id="mask1" mask-type="alpha" maskUnits="userSpaceOnUse" x="5" y="10" width="102" height="95">
<path fill-rule="evenodd" clip-rule="evenodd" d="M56.6746 11.4798C65.6001 11.5327 74.1645 13.4291 82.0803 17.5509C91.1861 22.2925 101.917 27.0179 105.193 36.7436C108.474 46.4857 102.468 56.6063 98.4159 66.0543C94.73 74.6491 89.8838 82.3631 82.9406 88.6311C75.2565 95.568 67.0091 103.089 56.6746 103.737C46.0868 104.4 36.5915 98.1616 27.9017 92.0798C19.0671 85.8967 9.16522 79.2247 6.66836 68.7382C4.22233 58.4653 10.7568 48.6006 15.2764 39.0557C19.2116 30.7449 23.394 22.3477 31.0492 17.2485C38.5178 12.2735 47.6993 11.4266 56.6746 11.4798Z" fill="#E9E8EB" stroke="#D4D3D9"/>
</mask>
<g mask="url(#mask1)">
<ellipse cx="56.1367" cy="88.4775" rx="50" ry="3" fill="#D4D3D9"/>
</g>
<path d="M82.8013 15.8457H15.0117C11.8113 15.8457 9.2168 18.4402 9.2168 21.6406V64.3312C9.2168 67.5316 11.8113 70.1261 15.0117 70.1261H82.8013C86.0018 70.1261 88.5962 67.5316 88.5962 64.3312V21.6406C88.5962 18.4402 86.0018 15.8457 82.8013 15.8457Z" fill="#D4D3D9"/>
<path d="M7.36559 15.2194C7.22985 15.2188 7.09977 15.165 7.0034 15.0694L6.07209 14.1432C5.97466 14.0458 5.91992 13.9137 5.91992 13.7759C5.91992 13.6381 5.97466 13.5059 6.07209 13.4085C6.16952 13.3111 6.30165 13.2563 6.43944 13.2563C6.57722 13.2563 6.70937 13.3111 6.80679 13.4085L7.73294 14.3398C7.8293 14.4368 7.8834 14.5679 7.8834 14.7046C7.8834 14.8413 7.8293 14.9724 7.73294 15.0694C7.68459 15.1173 7.62725 15.1553 7.56421 15.181C7.50118 15.2068 7.43368 15.2198 7.36559 15.2194Z" fill="#D4D3D9"/>
<path d="M5.96314 18.4684H4.65412C4.5169 18.4684 4.38529 18.4139 4.28826 18.3169C4.19123 18.2198 4.13672 18.0882 4.13672 17.951C4.13672 17.8138 4.19123 17.6822 4.28826 17.5851C4.38529 17.4881 4.5169 17.4336 4.65412 17.4336H5.96314C6.10036 17.4336 6.23196 17.4881 6.32899 17.5851C6.42603 17.6822 6.48054 17.8138 6.48054 17.951C6.48054 18.0882 6.42603 18.2198 6.32899 18.3169C6.23196 18.4139 6.10036 18.4684 5.96314 18.4684Z" fill="#D4D3D9"/>
<path d="M10.6607 13.8224C10.5295 13.8227 10.4031 13.7732 10.3071 13.6838C10.211 13.5945 10.1525 13.472 10.1433 13.3412L10.0502 12.0322C10.0453 11.9642 10.0538 11.8959 10.0754 11.8312C10.0969 11.7666 10.131 11.7068 10.1757 11.6554C10.2204 11.6039 10.2749 11.5618 10.3359 11.5315C10.3969 11.5011 10.4634 11.4831 10.5314 11.4785C10.6678 11.47 10.8021 11.5158 10.9048 11.606C11.0076 11.6962 11.0705 11.8233 11.0798 11.9597L11.1781 13.2687C11.183 13.3367 11.1745 13.405 11.1529 13.4697C11.1314 13.5343 11.0973 13.5941 11.0526 13.6456C11.0079 13.697 10.9534 13.7391 10.8924 13.7694C10.8314 13.7998 10.7649 13.8178 10.6969 13.8224H10.6607Z" fill="#D4D3D9"/>
<path d="M54.6973 64.543L75.5122 85.3528V64.543H54.6973Z" fill="#D4D3D9"/>
<path d="M60.4045 55.4263L59.3697 51.0336C59.1084 49.8789 59.1084 48.6804 59.3697 47.5256L60.8081 41.2703C61.3966 38.6028 61.0779 35.8151 59.9026 33.3492C58.7273 30.8833 56.7626 28.8803 54.3199 27.6575C54.3657 27.5424 54.4055 27.425 54.4389 27.3057C54.5238 26.9262 54.5332 26.5337 54.4664 26.1506C54.3997 25.7675 54.2581 25.4013 54.0498 25.0729C53.8416 24.7445 53.5706 24.4604 53.2525 24.2367C52.9345 24.013 52.5754 23.8542 52.196 23.7692C51.8165 23.6843 51.424 23.675 51.0409 23.7417C50.6578 23.8085 50.2916 23.95 49.9632 24.1583C49.6348 24.3666 49.3507 24.6375 49.127 24.9556C48.9033 25.2737 48.7445 25.6327 48.6595 26.0122C48.6338 26.1331 48.6183 26.256 48.613 26.3795C45.8823 26.4436 43.2511 27.4167 41.1359 29.1449C39.0208 30.873 37.5425 33.2573 36.9353 35.9204L35.5331 42.1809C35.2755 43.3336 34.7628 44.4138 34.0327 45.3422L31.2439 48.8864C30.9711 49.2341 30.7908 49.6451 30.7197 50.0812C30.6486 50.5174 30.689 50.9644 30.8372 51.3807C30.9855 51.797 31.2367 52.169 31.5674 52.462C31.8982 52.7551 32.2977 52.9596 32.7288 53.0566L57.3053 58.5618C57.7349 58.6546 58.181 58.6376 58.6023 58.5122C59.0236 58.3869 59.4065 58.1573 59.7154 57.8447C60.0244 57.5321 60.2496 57.1465 60.37 56.7238C60.4905 56.3011 60.5023 55.8548 60.4045 55.4263Z" fill="#A8A6B2"/>
<path d="M41.8445 56.7822C41.6576 56.741 41.4634 56.7465 41.2791 56.7982C41.0948 56.85 40.9261 56.9464 40.788 57.0789C40.6498 57.2114 40.5465 57.376 40.4871 57.558C40.4277 57.74 40.4141 57.9338 40.4476 58.1223C40.5887 58.9537 40.9741 59.7242 41.5546 60.3358C42.1352 60.9474 42.8846 61.3724 43.7075 61.5566C44.5304 61.7409 45.3895 61.676 46.1754 61.3703C46.9613 61.0646 47.6385 60.5319 48.1206 59.84C48.2307 59.6841 48.3008 59.5035 48.3247 59.3141C48.3486 59.1246 48.3255 58.9323 48.2575 58.7539C48.1896 58.5755 48.0788 58.4165 47.9349 58.2911C47.791 58.1656 47.6184 58.0774 47.4325 58.0343L41.8445 56.7822Z" fill="#A8A6B2"/>
<path d="M22.9708 48.0744C22.8426 48.0754 22.7162 48.0442 22.6032 47.9836C22.4902 47.9231 22.3942 47.8351 22.3241 47.7278C19.8804 44.0666 18.991 39.5847 19.8517 35.2678C20.7123 30.951 23.2525 27.1528 26.9134 24.7087C27.0849 24.5948 27.2947 24.5537 27.4965 24.5945C27.6983 24.6352 27.8757 24.7545 27.9896 24.926C28.1035 25.0975 28.1446 25.3073 28.1038 25.5091C28.0631 25.7109 27.9438 25.8883 27.7723 26.0022C24.4581 28.2219 22.1607 31.6664 21.3846 35.579C20.6085 39.4916 21.4172 43.5522 23.6331 46.8689C23.7475 47.0398 23.7895 47.2491 23.7497 47.4509C23.7099 47.6527 23.5917 47.8304 23.421 47.9451C23.2875 48.0329 23.1305 48.078 22.9708 48.0744Z" fill="#A8A6B2"/>
<path d="M26.2557 45.8698C26.1285 45.869 26.0035 45.8369 25.8916 45.7765C25.7798 45.716 25.6845 45.629 25.6141 45.5231C23.7541 42.7341 23.0772 39.3209 23.732 36.0331C24.3869 32.7454 26.3199 29.852 29.1066 27.9884C29.1915 27.9317 29.2868 27.8923 29.3869 27.8723C29.4871 27.8524 29.5902 27.8524 29.6904 27.8724C29.7906 27.8923 29.8859 27.9318 29.9708 27.9886C30.0557 28.0453 30.1286 28.1182 30.1853 28.2032C30.2421 28.2881 30.2815 28.3834 30.3014 28.4836C30.3213 28.5837 30.3213 28.6869 30.3014 28.787C30.2815 28.8872 30.242 28.9825 30.1852 29.0674C30.1285 29.1523 30.0555 29.2252 29.9706 29.2819C27.5247 30.9143 25.8273 33.4513 25.2519 36.3351C24.6765 39.2188 25.2702 42.213 26.9024 44.659C27.0169 44.8299 27.0588 45.0393 27.0191 45.241C26.9793 45.4428 26.861 45.6206 26.6903 45.7352C26.5616 45.8214 26.4106 45.8681 26.2557 45.8698Z" fill="#A8A6B2"/>
<path d="M29.547 43.6711C29.4201 43.6718 29.2951 43.641 29.1831 43.5814C29.0711 43.5218 28.9757 43.4353 28.9054 43.3297C28.2715 42.3804 27.8309 41.3155 27.609 40.1959C27.3871 39.0762 27.3882 37.9238 27.6121 36.8046C27.836 35.6853 28.2785 34.6212 28.9141 33.6731C29.5498 32.7251 30.3661 31.9116 31.3165 31.2794C31.4873 31.1733 31.6927 31.1377 31.8893 31.18C32.086 31.2223 32.2585 31.3394 32.3705 31.5064C32.4826 31.6735 32.5254 31.8775 32.4899 32.0755C32.4545 32.2734 32.3435 32.4499 32.1805 32.5677C31.401 33.0881 30.7317 33.7569 30.2108 34.536C29.6898 35.3151 29.3275 36.1891 29.1444 37.1083C28.9614 38.0274 28.9612 38.9737 29.1439 39.8929C29.3266 40.8121 29.6886 41.6863 30.2092 42.4656C30.3223 42.6369 30.3635 42.8458 30.3238 43.0472C30.2841 43.2486 30.1667 43.4262 29.9971 43.5418C29.8637 43.6296 29.7067 43.6747 29.547 43.6711Z" fill="#A8A6B2"/>
<path d="M67.7156 58.9859C67.5421 58.9855 67.3737 58.9269 67.2374 58.8196C67.101 58.7122 67.0046 58.5623 66.9635 58.3937C66.9224 58.2251 66.939 58.0476 67.0106 57.8895C67.0822 57.7314 67.2048 57.6019 67.3586 57.5217C70.9035 55.6901 73.576 52.5259 74.7888 48.7247C76.0016 44.9234 75.6553 40.7961 73.8261 37.25C73.7705 37.1589 73.7343 37.0574 73.7197 36.9518C73.7051 36.8461 73.7124 36.7386 73.7412 36.6358C73.77 36.5331 73.8197 36.4375 73.8871 36.3548C73.9545 36.2722 74.0383 36.2043 74.1331 36.1555C74.2279 36.1066 74.3318 36.0779 74.4382 36.071C74.5447 36.0641 74.6514 36.0792 74.7518 36.1154C74.8521 36.1516 74.9439 36.208 75.0214 36.2813C75.099 36.3546 75.1606 36.443 75.2024 36.5411C76.2016 38.4789 76.8092 40.5945 76.9906 42.7671C77.172 44.9397 76.9236 47.1268 76.2596 49.2034C75.5956 51.28 74.529 53.2055 73.1207 54.8698C71.7124 56.5341 69.99 57.9046 68.0519 58.9031C67.947 58.9544 67.8324 58.9827 67.7156 58.9859Z" fill="#A8A6B2"/>
<path d="M65.8992 55.4729C65.7257 55.4725 65.5573 55.4139 65.421 55.3066C65.2846 55.1992 65.1882 55.0493 65.1471 54.8807C65.106 54.7121 65.1226 54.5345 65.1942 54.3765C65.2658 54.2184 65.3884 54.0889 65.5422 54.0087C66.837 53.3412 67.9874 52.425 68.9278 51.3125C69.8681 50.2 70.5799 48.9131 71.0225 47.5253C71.4651 46.1375 71.6297 44.676 71.5071 43.2246C71.3844 41.7731 70.9767 40.36 70.3075 39.0662C70.2128 38.883 70.1948 38.6697 70.2574 38.4732C70.3199 38.2767 70.458 38.1131 70.6412 38.0184C70.8244 37.9238 71.0377 37.9057 71.2342 37.9683C71.4307 38.0309 71.5943 38.169 71.6889 38.3522C72.4515 39.8271 72.9159 41.4378 73.0556 43.0924C73.1953 44.7469 73.0075 46.4127 72.5029 47.9946C71.9984 49.5765 71.187 51.0434 70.1151 52.3115C69.0433 53.5796 67.732 54.624 66.2562 55.385C66.1465 55.4436 66.0237 55.4739 65.8992 55.4729Z" fill="#A8A6B2"/>
<path d="M64.083 51.9601C63.9101 51.9573 63.743 51.8972 63.6079 51.7892C63.4728 51.6812 63.3774 51.5314 63.3365 51.3634C63.2957 51.1953 63.3118 51.0185 63.3823 50.8606C63.4527 50.7026 63.5736 50.5725 63.726 50.4907C64.559 50.062 65.2993 49.4732 65.9045 48.7581C66.5097 48.043 66.9679 47.2155 67.2529 46.323C67.5379 45.4306 67.6441 44.4907 67.5653 43.5571C67.4866 42.6236 67.2246 41.7147 66.7942 40.8826C66.6995 40.6994 66.6815 40.4861 66.744 40.2896C66.8066 40.0931 66.9447 39.9295 67.1279 39.8349C67.3111 39.7402 67.5244 39.7221 67.7209 39.7847C67.9174 39.8473 68.0809 39.9854 68.1756 40.1686C69.2286 42.2177 69.4256 44.6009 68.7233 46.7951C68.021 48.9894 66.4768 50.8153 64.4297 51.8721C64.3223 51.9275 64.2037 51.9576 64.083 51.9601Z" fill="#A8A6B2"/>
</g>
</svg>