<svg xmlns="http://www.w3.org/2000/svg" width="110" height="110" viewBox="0 0 110 110" fill="none">
<mask id="mask0" mask-type="alpha" maskUnits="userSpaceOnUse" x="0" y="0" width="110" height="110">
<rect width="110" height="110" fill="#C4C4C4"/>
</mask>
<g mask="url(#mask0)">
<path fill-rule="evenodd" clip-rule="evenodd" d="M1.04218 65.9645C-0.190556 55.3079 8.15479 46.4921 12.4962 36.6494C16.5781 27.395 17.4591 16.0995 25.6695 10.1297C34.0312 4.05013 45.281 4.31781 55.5697 5.33125C65.4445 6.30391 74.2516 10.4775 82.6271 15.74C92.0927 21.6876 102.832 27.2303 106.918 37.5951C111.193 48.4378 109.638 61.0702 104.673 71.654C99.8972 81.8348 90.1588 88.3168 80.4347 94.0512C71.0883 99.563 61.0407 103.858 50.1903 103.784C38.9919 103.707 27.9254 100.432 19.0878 93.6317C10.1243 86.7344 2.33844 77.1703 1.04218 65.9645Z" fill="#E9E8EB" stroke="#D4D3D9"/>
<mask id="mask1" mask-type="alpha" maskUnits="userSpaceOnUse" x="-13" y="-11" width="134" height="127">
<path fill-rule="evenodd" clip-rule="evenodd" d="M1.04218 65.9645C-0.190556 55.3079 8.15479 46.4921 12.4962 36.6494C16.5781 27.395 17.4591 16.0995 25.6695 10.1297C34.0312 4.05013 45.281 4.31781 55.5697 5.33125C65.4445 6.30391 74.2516 10.4775 82.6271 15.74C92.0927 21.6876 102.832 27.2303 106.918 37.5951C111.193 48.4378 109.638 61.0702 104.673 71.654C99.8972 81.8348 90.1588 88.3168 80.4347 94.0512C71.0883 99.563 61.0407 103.858 50.1903 103.784C38.9919 103.707 27.9254 100.432 19.0878 93.6317C10.1243 86.7344 2.33844 77.1703 1.04218 65.9645Z" fill="#E9E8EB" stroke="#D4D3D9"/>
</mask>
<g mask="url(#mask1)">
<ellipse cx="55.1367" cy="91.4775" rx="50" ry="5" fill="#D4D3D9"/>
</g>
<path opacity="0.2" d="M56.5624 49.6602C52.3448 50.1494 48.077 49.377 44.2984 47.4407C40.5198 45.5044 37.4003 42.4911 35.3343 38.7819C33.2683 35.0726 32.3485 30.8341 32.6914 26.6021C33.0342 22.3702 34.6242 18.3349 37.2604 15.0066C39.8966 11.6784 43.4605 9.20651 47.5015 7.90368C51.5424 6.60084 55.879 6.52552 59.9628 7.68725C64.0465 8.84898 67.6941 11.1956 70.4443 14.4303C73.1944 17.6651 74.9236 21.6426 75.4132 25.8601C75.7387 28.6607 75.5092 31.498 74.7379 34.2098C73.9666 36.9217 72.6686 39.455 70.918 41.6652C69.1675 43.8753 66.9987 45.7189 64.5355 47.0907C62.0723 48.4625 59.363 49.3357 56.5624 49.6602Z" fill="#A8A6B2"/>
<path opacity="0.1" d="M63.1788 8.88779L37.2373 41.642C37.036 41.3867 36.8386 41.1252 36.6463 40.8627C35.4113 39.1493 34.439 37.2611 33.7617 35.2606L56.1691 6.96826C58.5985 7.2007 60.9698 7.85004 63.1788 8.88779Z" fill="white"/>
<path opacity="0.1" d="M73.0865 18.3277L48.6964 49.123C45.5136 48.2968 42.5636 46.7494 40.0744 44.6008L66.7074 10.9719C69.3685 12.9035 71.5509 15.42 73.0865 18.3277Z" fill="white"/>
<path d="M40.6352 9.8826C44.2851 7.22215 48.642 5.70376 53.1548 5.51945C57.6677 5.33514 62.1338 6.49318 65.9885 8.84713C69.8432 11.2011 72.9134 14.6452 74.8106 18.744C76.7079 22.8428 77.3472 27.4122 76.6476 31.8743C75.9479 36.3364 73.9409 40.4908 70.8802 43.8122C67.8194 47.1336 63.8425 49.4729 59.4524 50.5341C55.0622 51.5953 50.4559 51.3308 46.216 49.7742C41.9762 48.2175 38.2931 45.4385 35.6326 41.7887C32.0655 36.8941 30.5887 30.7831 31.5268 24.7997C32.465 18.8163 35.7413 13.4506 40.6352 9.8826ZM66.4383 45.2804C69.789 42.8371 72.3399 39.4551 73.7685 35.5621C75.1971 31.6691 75.4392 27.4398 74.4643 23.4092C73.4894 19.3785 71.3412 15.7275 68.2913 12.9177C65.2414 10.1079 61.4269 8.26561 57.33 7.62369C53.2331 6.98178 49.0379 7.56911 45.2747 9.31142C41.5116 11.0537 38.3497 13.8728 36.1887 17.4121C34.0277 20.9514 32.9647 25.052 33.1341 29.1954C33.3036 33.3388 34.6978 37.3389 37.1406 40.69C38.7628 42.9153 40.8074 44.7992 43.1577 46.2343C45.508 47.6693 48.118 48.6274 50.8386 49.0536C53.5592 49.4799 56.3372 49.3661 59.0138 48.7187C61.6904 48.0713 64.2133 46.9029 66.4383 45.2804Z" fill="#A8A6B2"/>
<path d="M68.4094 45.7121C70.2473 47.5794 71.9453 49.5479 73.5953 51.5521C75.2454 53.5564 76.8276 55.6081 78.3675 57.6922C79.9074 59.7764 81.3993 61.8963 82.8023 64.0799C83.5059 65.1711 84.1825 66.2794 84.8322 67.4047C85.4825 68.5399 86.117 69.671 86.6817 70.866C86.8121 71.1425 86.842 71.4559 86.7663 71.7521C86.6907 72.0483 86.5142 72.309 86.2672 72.4891C86.0202 72.6693 85.7181 72.7578 85.4129 72.7394C85.1077 72.721 84.8185 72.5969 84.5949 72.3883C83.6239 71.4833 82.7416 70.5339 81.8658 69.5692C80.99 68.6045 80.1467 67.6169 79.3222 66.6126C77.6722 64.6083 76.1083 62.5421 74.598 60.4367C73.0878 58.3313 71.6164 56.1974 70.2141 54.0116C68.8117 51.8257 67.4562 49.6085 66.241 47.288C66.0887 47.0005 66.0452 46.6677 66.1184 46.3506C66.1916 46.0336 66.3767 45.7535 66.6396 45.5619C66.9026 45.3702 67.2258 45.2798 67.5501 45.3072C67.8743 45.3346 68.1778 45.4779 68.4049 45.7109L68.4094 45.7121Z" fill="#A8A6B2"/>
<path d="M64.1491 55.5838C64.3985 55.2291 64.7615 54.9634 65.1902 54.8217C65.6188 54.68 66.0931 54.6689 66.5506 54.7899L80.7775 58.7924C81.0253 58.853 81.2604 58.9637 81.4663 59.1167C81.6722 59.2696 81.8438 59.4612 81.969 59.6778C82.0942 59.8943 82.1699 60.1307 82.1909 60.3701C82.2119 60.6095 82.1775 60.8462 82.0903 61.0635L71.7415 88.7611C71.5499 89.2282 71.1838 89.6018 70.7087 89.8149C70.2336 90.028 69.6804 90.0668 69.1481 89.9243L24.0062 77.2244C23.7592 77.1642 23.5247 77.0541 23.3194 76.9019C23.114 76.7496 22.9427 76.559 22.8175 76.3433C22.6924 76.1276 22.6164 75.8922 22.5949 75.6536C22.5734 75.415 22.607 75.179 22.6932 74.9622L31.3819 51.6894C31.5735 51.2222 31.9396 50.8487 32.4147 50.6355C32.8898 50.4224 33.443 50.3836 33.9752 50.5261L58.5403 57.437C59.6086 57.7196 60.7162 57.6938 61.7174 57.363C62.7185 57.0322 63.5662 56.412 64.1491 55.5838Z" fill="#A8A6B2"/>
<path d="M23.431 75.6567L70.5711 88.9126L80.1205 60.1273L32.9822 46.8719L23.431 75.6567Z" fill="#F0F0F0"/>
<path d="M23.4308 75.6713L70.5849 88.9342L79.3946 59.9258L32.9849 46.8723L23.4308 75.6713Z" fill="#E0E0E0"/>
<path d="M23.4317 75.6635L70.6219 88.9435L79.3332 58.8687L32.1448 45.5892L23.4317 75.6635Z" fill="#F0F0F0"/>
<path d="M23.4305 75.6834L70.6404 88.9726L78.3755 58.6022L32.1474 45.5895L23.4305 75.6834Z" fill="#E0E0E0"/>
<path d="M23.4317 75.6788L70.6758 88.9831L78.248 57.6477L31.0057 44.3439L23.4317 75.6788Z" fill="#F0F0F0"/>
<path d="M23.4465 75.6993L70.6636 88.9916L76.8427 57.925L29.9316 44.7188L23.4465 75.6993Z" fill="#E0E0E0"/>
<path d="M23.4652 75.7097L70.6598 88.9918L76.3491 58.0618L29.1562 44.7803L23.4652 75.7097Z" fill="#F0F0F0"/>
<path d="M23.4821 75.7241L70.6459 88.9916L75.3944 58.3208L28.2324 45.0537L23.4821 75.7241Z" fill="#E0E0E0"/>
<path d="M23.4904 75.7313L70.6394 88.9917L74.9714 58.4933L27.8242 45.2334L23.4904 75.7313Z" fill="#F0F0F0"/>
<path d="M53.5313 54.7897C53.5785 54.5988 53.6665 54.422 53.7901 54.2698C53.9138 54.1176 54.0704 53.9931 54.2508 53.9038C54.4312 53.8144 54.6317 53.762 54.8403 53.7497C55.0488 53.7374 55.2612 53.7654 55.4649 53.8321L69.6702 57.8239C70.2156 57.9981 70.6991 58.3354 71.0447 58.7828C71.3902 59.2302 71.5784 59.7625 71.5796 60.296L70.9717 88.6305C70.948 89.692 70.056 90.3088 68.9788 90.0061L23.905 77.3402C22.8261 77.037 21.9649 75.9275 21.9939 74.8676L22.4924 51.5083C22.5161 50.4469 23.4081 49.8301 24.4853 50.1327L49.015 57.0257C51.1445 57.6241 53.0108 56.6951 53.5313 54.7897Z" fill="#A8A6B2"/>
<path opacity="0.2" d="M53.5313 54.7897C53.5785 54.5988 53.6665 54.422 53.7901 54.2698C53.9138 54.1176 54.0704 53.9931 54.2508 53.9038C54.4312 53.8144 54.6317 53.762 54.8403 53.7497C55.0488 53.7374 55.2612 53.7654 55.4649 53.8321L69.6702 57.8239C70.2156 57.9981 70.6991 58.3354 71.0447 58.7828C71.3902 59.2302 71.5784 59.7625 71.5796 60.296L70.9717 88.6305C70.948 89.692 70.056 90.3088 68.9788 90.0061L23.905 77.3402C22.8261 77.037 21.9649 75.9275 21.9939 74.8676L22.4924 51.5083C22.5161 50.4469 23.4081 49.8301 24.4853 50.1327L49.015 57.0257C51.1445 57.6241 53.0108 56.6951 53.5313 54.7897Z" fill="#92909F"/>
</g>
</svg>