<svg xmlns="http://www.w3.org/2000/svg" width="110" height="110" viewBox="0 0 110 110" fill="none">
<mask id="mask0" mask-type="alpha" maskUnits="userSpaceOnUse" x="0" y="0" width="110" height="110">
<rect width="110" height="110" fill="#C4C4C4"/>
</mask>
<g mask="url(#mask0)">
<path fill-rule="evenodd" clip-rule="evenodd" d="M52.9109 1.51684C63.8936 1.00738 74.6071 5.49698 83.2117 12.3387C91.5655 18.981 96.0387 28.814 99.8006 38.7999C103.743 49.2653 107.93 60.18 105.332 71.057C102.622 82.402 95.2376 92.4498 85.4628 98.8188C75.9663 105.006 64.2451 105.386 52.9109 105.213C41.7455 105.042 29.8433 104.746 21.0751 97.8336C12.4476 91.032 9.02876 79.7466 6.93167 68.9647C5.03511 59.2137 6.74211 49.4788 9.83397 40.0383C12.9191 30.6182 17.1965 21.6667 24.5865 15.0581C32.5823 7.90792 42.1943 2.01394 52.9109 1.51684Z" fill="#E9E8EB" stroke="#D4D3D9"/>
<mask id="mask1" mask-type="alpha" maskUnits="userSpaceOnUse" x="5" y="0" width="102" height="106">
<path fill-rule="evenodd" clip-rule="evenodd" d="M52.9109 1.51684C63.8936 1.00738 74.6071 5.49698 83.2117 12.3387C91.5655 18.981 96.0387 28.814 99.8006 38.7999C103.743 49.2653 107.93 60.18 105.332 71.057C102.622 82.402 95.2376 92.4498 85.4628 98.8188C75.9663 105.006 64.2451 105.386 52.9109 105.213C41.7455 105.042 29.8433 104.746 21.0751 97.8336C12.4476 91.032 9.02876 79.7466 6.93167 68.9647C5.03511 59.2137 6.74211 49.4788 9.83397 40.0383C12.9191 30.6182 17.1965 21.6667 24.5865 15.0581C32.5823 7.90792 42.1943 2.01394 52.9109 1.51684Z" fill="#E9E8EB" stroke="#E9E8EB"/>
</mask>
<g mask="url(#mask1)">
<ellipse cx="56.1367" cy="83.4775" rx="50" ry="4" fill="#D4D3D9"/>
</g>
<path d="M53.3509 20.7087C53.1166 20.7081 52.8877 20.6379 52.6935 20.5068L40.3729 12.3638C40.1434 12.2097 39.8728 12.1285 39.5964 12.1309H16.7568L24.8635 18.5759C24.9914 18.672 25.0987 18.7927 25.179 18.931C25.2594 19.0693 25.3112 19.2223 25.3314 19.381C25.3516 19.5397 25.3397 19.7008 25.2965 19.8548C25.2533 20.0088 25.1797 20.1526 25.0799 20.2776C24.9802 20.4027 24.8563 20.5064 24.7158 20.5828C24.5752 20.6591 24.4208 20.7064 24.2616 20.722C24.1024 20.7376 23.9417 20.7211 23.789 20.6734C23.6363 20.6258 23.4947 20.548 23.3726 20.4447L12.5895 11.8721C12.3949 11.7177 12.2531 11.5065 12.184 11.2679C12.1148 11.0293 12.1217 10.7751 12.2037 10.5405C12.2857 10.306 12.4386 10.1028 12.6414 9.95922C12.8441 9.81562 13.0865 9.73875 13.335 9.73926H39.5964C40.3423 9.73827 41.0717 9.95801 41.693 10.3708L54.0083 18.5138C54.2233 18.6552 54.387 18.8621 54.475 19.1039C54.563 19.3458 54.5706 19.6095 54.4968 19.856C54.4229 20.1025 54.2716 20.3186 54.0651 20.4722C53.8587 20.6258 53.6082 20.7088 53.3509 20.7087Z" fill="#BDBCC5"/>
<g opacity="0.3">
<path opacity="0.3" d="M53.3509 20.7087C53.1166 20.7081 52.8877 20.6379 52.6935 20.5068L40.3729 12.3638C40.1434 12.2097 39.8728 12.1285 39.5964 12.1309H16.7568L24.8635 18.5759C24.9914 18.672 25.0987 18.7927 25.179 18.931C25.2594 19.0693 25.3112 19.2223 25.3314 19.381C25.3516 19.5397 25.3397 19.7008 25.2965 19.8548C25.2533 20.0088 25.1797 20.1526 25.0799 20.2776C24.9802 20.4027 24.8563 20.5064 24.7158 20.5828C24.5752 20.6591 24.4208 20.7064 24.2616 20.722C24.1024 20.7376 23.9417 20.7211 23.789 20.6734C23.6363 20.6258 23.4947 20.548 23.3726 20.4447L12.5895 11.8721C12.3949 11.7177 12.2531 11.5065 12.184 11.2679C12.1148 11.0293 12.1217 10.7751 12.2037 10.5405C12.2857 10.306 12.4386 10.1028 12.6414 9.95922C12.8441 9.81562 13.0865 9.73875 13.335 9.73926H39.5964C40.3423 9.73827 41.0717 9.95801 41.693 10.3708L54.0083 18.5138C54.2233 18.6552 54.387 18.8621 54.475 19.1039C54.563 19.3458 54.5706 19.6095 54.4968 19.856C54.4229 20.1025 54.2716 20.3186 54.0651 20.4722C53.8587 20.6258 53.6082 20.7088 53.3509 20.7087Z" fill="black"/>
</g>
<path d="M88.386 81.6747C90.2786 81.6747 91.8129 80.1404 91.8129 78.2478C91.8129 76.3551 90.2786 74.8208 88.386 74.8208C86.4933 74.8208 84.959 76.3551 84.959 78.2478C84.959 80.1404 86.4933 81.6747 88.386 81.6747Z" fill="#7D7A8C"/>
<path d="M47.2571 81.6747C49.1497 81.6747 50.684 80.1404 50.684 78.2478C50.684 76.3551 49.1497 74.8208 47.2571 74.8208C45.3644 74.8208 43.8301 76.3551 43.8301 78.2478C43.8301 80.1404 45.3644 81.6747 47.2571 81.6747Z" fill="#7D7A8C"/>
<path d="M85.3944 76.3842H46.4087C46.0916 76.3842 45.7874 76.2582 45.5631 76.0339C45.3389 75.8097 45.2129 75.5055 45.2129 75.1883C45.2129 74.8712 45.3389 74.567 45.5631 74.3428C45.7874 74.1185 46.0916 73.9925 46.4087 73.9925H85.3944C85.5871 73.9925 85.772 73.9163 85.9087 73.7806C86.0455 73.6448 86.123 73.4605 86.1244 73.2678V70.1618C86.1237 69.9952 86.0665 69.8338 85.9621 69.704C85.8577 69.5742 85.7123 69.4837 85.5497 69.4474L53.3144 62.4795C51.909 62.1691 50.6511 61.3894 49.7478 60.2688C48.8445 59.1482 48.3497 57.7534 48.3448 56.3141V50.2573C48.3448 49.9402 48.4708 49.636 48.695 49.4118C48.9193 49.1875 49.2235 49.0615 49.5406 49.0615C49.8578 49.0615 50.1619 49.1875 50.3862 49.4118C50.6104 49.636 50.7364 49.9402 50.7364 50.2573V56.3193C50.7389 57.212 51.0452 58.0773 51.6051 58.7726C52.165 59.468 52.9449 59.952 53.8166 60.1448L86.0571 67.1179C86.752 67.2717 87.374 67.6574 87.8209 68.2115C88.2677 68.7656 88.5129 69.4551 88.516 70.1669V73.273C88.5167 73.6826 88.4363 74.0883 88.2796 74.4668C88.1228 74.8452 87.8927 75.1889 87.6026 75.4781C87.3125 75.7673 86.968 75.9962 86.589 76.1517C86.2101 76.3072 85.8041 76.3862 85.3944 76.3842Z" fill="#BDBCC5"/>
<g opacity="0.3">
<path opacity="0.3" d="M85.3944 76.3842H46.4087C46.0916 76.3842 45.7874 76.2582 45.5631 76.0339C45.3389 75.8097 45.2129 75.5055 45.2129 75.1883C45.2129 74.8712 45.3389 74.567 45.5631 74.3428C45.7874 74.1185 46.0916 73.9925 46.4087 73.9925H85.3944C85.5871 73.9925 85.772 73.9163 85.9087 73.7806C86.0455 73.6448 86.123 73.4605 86.1244 73.2678V70.1618C86.1237 69.9952 86.0665 69.8338 85.9621 69.704C85.8577 69.5742 85.7123 69.4837 85.5497 69.4474L53.3144 62.4795C51.909 62.1691 50.6511 61.3894 49.7478 60.2688C48.8445 59.1482 48.3497 57.7534 48.3448 56.3141V50.2573C48.3448 49.9402 48.4708 49.636 48.695 49.4118C48.9193 49.1875 49.2235 49.0615 49.5406 49.0615C49.8578 49.0615 50.1619 49.1875 50.3862 49.4118C50.6104 49.636 50.7364 49.9402 50.7364 50.2573V56.3193C50.7389 57.212 51.0452 58.0773 51.6051 58.7726C52.165 59.468 52.9449 59.952 53.8166 60.1448L86.0571 67.1179C86.752 67.2717 87.374 67.6574 87.8209 68.2115C88.2677 68.7656 88.5129 69.4551 88.516 70.1669V73.273C88.5167 73.6826 88.4363 74.0883 88.2796 74.4668C88.1228 74.8452 87.8927 75.1889 87.6026 75.4781C87.3125 75.7673 86.968 75.9962 86.589 76.1517C86.2101 76.3072 85.8041 76.3862 85.3944 76.3842Z" fill="black"/>
</g>
<path d="M85.364 35.1724V35.0896L86.7565 27.3763L88.1853 19.4559C88.2163 19.2838 88.2092 19.107 88.1645 18.938C88.1198 18.7689 88.0386 18.6117 87.9265 18.4775C87.8145 18.3432 87.6744 18.2352 87.516 18.1609C87.3577 18.0867 87.185 18.0481 87.0101 18.0479H71.8372C71.5201 18.0479 71.2159 18.1738 70.9917 18.3981C70.7674 18.6224 70.6414 18.9265 70.6414 19.2437C70.6414 19.5608 70.7674 19.865 70.9917 20.0892C71.2159 20.3135 71.5201 20.4395 71.8372 20.4395H76.1908L75.4247 25.9475H42.6665C42.3494 25.9475 42.0452 26.0735 41.821 26.2977C41.5967 26.522 41.4707 26.8262 41.4707 27.1433C41.4707 27.4605 41.5967 27.7646 41.821 27.9889C42.0452 28.2132 42.3494 28.3391 42.6665 28.3391H75.083L74.3324 33.7177H44.6544C44.3372 33.7177 44.0331 33.8437 43.8088 34.068C43.5845 34.2922 43.4586 34.5964 43.4586 34.9135C43.4586 35.2307 43.5845 35.5349 43.8088 35.7591C44.0331 35.9834 44.3372 36.1094 44.6544 36.1094H74.0011L73.2246 41.664H46.5646C46.2474 41.664 45.9433 41.7899 45.719 42.0142C45.4948 42.2385 45.3688 42.5426 45.3688 42.8598C45.3688 43.1769 45.4948 43.4811 45.719 43.7053C45.9433 43.9296 46.2474 44.0556 46.5646 44.0556H72.8726L72.1737 49.077H69.0677C68.7505 49.077 68.4464 49.203 68.2221 49.4272C67.9979 49.6515 67.8719 49.9557 67.8719 50.2728C67.8719 50.59 67.9979 50.8941 68.2221 51.1184C68.4464 51.3426 68.7505 51.4686 69.0677 51.4686H81.3882C81.6689 51.4684 81.9406 51.3699 82.1562 51.1903C82.3719 51.0106 82.5177 50.7611 82.5685 50.4851L83.899 43.1083L85.364 35.1724ZM83.226 33.7022H81.5591L82.5012 28.3236H84.1992L83.226 33.7022ZM82.7911 36.0938L81.7869 41.6484H80.12L81.0932 36.0938H82.7911ZM84.6289 25.932H82.9206L83.8886 20.424H85.628L84.6289 25.932ZM78.6291 20.424H81.4607L80.4927 25.932H77.8577L78.6291 20.424ZM77.5264 28.3236H80.0734L79.0846 33.7022H76.7292L77.5264 28.3236ZM76.4393 36.0887H78.7119L77.7335 41.6432H75.6628L76.4393 36.0887ZM75.3315 44.0349H77.3142L76.4342 49.0563H74.6327L75.3315 44.0349ZM78.862 49.0563L79.7421 44.0349H81.3572L80.4461 49.0563H78.862Z" fill="#BDBCC5"/>
<g opacity="0.3">
<path opacity="0.3" d="M85.364 35.1724V35.0896L86.7565 27.3763L88.1853 19.4559C88.2163 19.2838 88.2092 19.107 88.1645 18.938C88.1198 18.7689 88.0386 18.6117 87.9265 18.4775C87.8145 18.3432 87.6744 18.2352 87.516 18.1609C87.3577 18.0867 87.185 18.0481 87.0101 18.0479H71.8372C71.5201 18.0479 71.2159 18.1738 70.9917 18.3981C70.7674 18.6224 70.6414 18.9265 70.6414 19.2437C70.6414 19.5608 70.7674 19.865 70.9917 20.0892C71.2159 20.3135 71.5201 20.4395 71.8372 20.4395H76.1908L75.4247 25.9475H42.6665C42.3494 25.9475 42.0452 26.0735 41.821 26.2977C41.5967 26.522 41.4707 26.8262 41.4707 27.1433C41.4707 27.4605 41.5967 27.7646 41.821 27.9889C42.0452 28.2132 42.3494 28.3391 42.6665 28.3391H75.083L74.3324 33.7177H44.6544C44.3372 33.7177 44.0331 33.8437 43.8088 34.068C43.5845 34.2922 43.4586 34.5964 43.4586 34.9135C43.4586 35.2307 43.5845 35.5349 43.8088 35.7591C44.0331 35.9834 44.3372 36.1094 44.6544 36.1094H74.0011L73.2246 41.664H46.5646C46.2474 41.664 45.9433 41.7899 45.719 42.0142C45.4948 42.2385 45.3688 42.5426 45.3688 42.8598C45.3688 43.1769 45.4948 43.4811 45.719 43.7053C45.9433 43.9296 46.2474 44.0556 46.5646 44.0556H72.8726L72.1737 49.077H69.0677C68.7505 49.077 68.4464 49.203 68.2221 49.4272C67.9979 49.6515 67.8719 49.9557 67.8719 50.2728C67.8719 50.59 67.9979 50.8941 68.2221 51.1184C68.4464 51.3426 68.7505 51.4686 69.0677 51.4686H81.3882C81.6689 51.4684 81.9406 51.3699 82.1562 51.1903C82.3719 51.0106 82.5177 50.7611 82.5685 50.4851L83.899 43.1083L85.364 35.1724ZM83.226 33.7022H81.5591L82.5012 28.3236H84.1992L83.226 33.7022ZM82.7911 36.0938L81.7869 41.6484H80.12L81.0932 36.0938H82.7911ZM84.6289 25.932H82.9206L83.8886 20.424H85.628L84.6289 25.932ZM78.6291 20.424H81.4607L80.4927 25.932H77.8577L78.6291 20.424ZM77.5264 28.3236H80.0734L79.0846 33.7022H76.7292L77.5264 28.3236ZM76.4393 36.0887H78.7119L77.7335 41.6432H75.6628L76.4393 36.0887ZM75.3315 44.0349H77.3142L76.4342 49.0563H74.6327L75.3315 44.0349ZM78.862 49.0563L79.7421 44.0349H81.3572L80.4461 49.0563H78.862Z" fill="black"/>
</g>
<path d="M72.7125 18.4205C72.6013 18.2976 72.4655 18.1995 72.3139 18.1326C72.1622 18.0658 71.9982 18.0315 71.8325 18.0322H23.1767C22.9974 18.0325 22.8204 18.073 22.6588 18.1509C22.4973 18.2288 22.3553 18.3421 22.2435 18.4822C22.1316 18.6224 22.0528 18.786 22.0127 18.9608C21.9726 19.1356 21.9723 19.3172 22.0119 19.4921L23.8031 27.371L29.073 50.5212C29.1328 50.7855 29.2806 51.0217 29.4922 51.191C29.7039 51.3603 29.9667 51.4527 30.2377 51.453H69.1044C69.4032 51.4517 69.6907 51.339 69.9109 51.137C70.131 50.9351 70.268 50.6583 70.295 50.3607L73.0231 19.3575C73.0417 19.1881 73.0236 19.0168 72.97 18.8551C72.9164 18.6934 72.8286 18.5452 72.7125 18.4205ZM68.654 41.6483H63.1046L63.3479 36.0989H69.1458L68.654 41.6483ZM37.863 49.0614L37.2107 44.04H43.1846L43.547 49.0614H37.863ZM44.836 33.7073L44.4426 28.3235H52.3215V33.7073H44.836ZM52.3215 36.0989V41.6483H45.4365L45.0327 36.0989H52.3215ZM54.7132 28.3339H61.2979L61.0598 33.7176H54.7132V28.3339ZM54.7132 25.9422V20.4239H61.6499L61.4066 25.9319L54.7132 25.9422ZM52.3215 25.9422H44.2717L43.8835 20.4239H52.3215V25.9422ZM41.8749 25.9422H34.8709L34.1616 20.4342H41.4763L41.8749 25.9422ZM42.0458 28.3339L42.4392 33.7176H35.8751L35.1815 28.3339H42.0458ZM33.468 33.7176H27.6959L26.4691 28.3339H32.7691L33.468 33.7176ZM28.2395 36.1093H33.7734L34.493 41.6587H29.5026L28.2395 36.1093ZM36.1857 36.1093H42.61L43.0138 41.6587H36.9053L36.1857 36.1093ZM45.5815 44.0503H52.3112V49.0717H45.9542L45.5815 44.0503ZM54.7132 44.0503H60.6042L60.3868 49.0717H54.6925L54.7132 44.0503ZM54.7132 41.6587V36.0989H60.9666L60.7233 41.6483L54.7132 41.6587ZM63.4566 33.7176L63.6947 28.3339H69.8291L69.358 33.7176H63.4566ZM70.0414 25.9526H63.7983L64.0416 20.4446H70.528L70.0414 25.9526ZM31.7338 20.4446L32.4482 25.9526H25.9255L24.6728 20.4446H31.7338ZM30.0306 44.0607H34.788L35.4351 49.0821H31.1695L30.0306 44.0607ZM62.7629 49.0821L62.9855 44.0607H68.4314L67.9862 49.0821H62.7629Z" fill="#BDBCC5"/>
<path d="M66.2675 76.3841H27.2818C26.9646 76.3841 26.6604 76.2582 26.4362 76.0339C26.2119 75.8096 26.0859 75.5055 26.0859 75.1883C26.0859 74.8712 26.2119 74.567 26.4362 74.3428C26.6604 74.1185 26.9646 73.9925 27.2818 73.9925H66.2675C66.4597 73.9925 66.6441 73.9162 66.78 73.7802C66.9159 73.6443 66.9922 73.46 66.9922 73.2678V70.1618C66.9925 69.995 66.9356 69.8331 66.8311 69.7031C66.7265 69.5731 66.5806 69.4829 66.4176 69.4474L34.1823 62.4795C32.7773 62.1682 31.5199 61.3883 30.6168 60.2679C29.7137 59.1474 29.2185 57.7532 29.2127 56.3141V50.2573C29.2127 49.9402 29.3387 49.636 29.5629 49.4118C29.7872 49.1875 30.0913 49.0615 30.4085 49.0615C30.7256 49.0615 31.0298 49.1875 31.2541 49.4118C31.4783 49.636 31.6043 49.9402 31.6043 50.2573V56.3193C31.609 57.2153 31.9194 58.0829 32.4842 58.7785C33.049 59.4742 33.8343 59.9562 34.7103 60.1448L66.9456 67.1179C67.6406 67.2717 68.2626 67.6574 68.7095 68.2115C69.1563 68.7655 69.4014 69.4551 69.4046 70.1669V73.2729C69.4053 73.6839 69.3244 74.0909 69.1667 74.4704C69.009 74.8499 68.7775 75.1943 68.4857 75.4836C68.1939 75.773 67.8476 76.0016 67.4669 76.1562C67.0861 76.3108 66.6784 76.3883 66.2675 76.3841Z" fill="#BDBCC5"/>
<path d="M66.8664 81.6747C68.7591 81.6747 70.2934 80.1404 70.2934 78.2478C70.2934 76.3551 68.7591 74.8208 66.8664 74.8208C64.9738 74.8208 63.4395 76.3551 63.4395 78.2478C63.4395 80.1404 64.9738 81.6747 66.8664 81.6747Z" fill="#7D7A8C"/>
<path d="M67.2857 78.2478C67.2857 78.555 67.1946 78.8552 67.024 79.1106C66.8533 79.366 66.6108 79.5651 66.327 79.6826C66.0432 79.8002 65.731 79.8309 65.4297 79.771C65.1285 79.7111 64.8518 79.5632 64.6346 79.346C64.4174 79.1288 64.2695 78.8521 64.2095 78.5508C64.1496 78.2496 64.1804 77.9373 64.2979 77.6535C64.4154 77.3697 64.6145 77.1272 64.8699 76.9566C65.1253 76.7859 65.4255 76.6948 65.7327 76.6948C66.1446 76.6948 66.5396 76.8584 66.8308 77.1497C67.1221 77.4409 67.2857 77.836 67.2857 78.2478Z" fill="#BDBCC5"/>
<path d="M25.7336 81.6747C27.6263 81.6747 29.1606 80.1404 29.1606 78.2478C29.1606 76.3551 27.6263 74.8208 25.7336 74.8208C23.8409 74.8208 22.3066 76.3551 22.3066 78.2478C22.3066 80.1404 23.8409 81.6747 25.7336 81.6747Z" fill="#7D7A8C"/>
<path d="M26.1529 78.2478C26.1529 78.555 26.0618 78.8552 25.8912 79.1106C25.7205 79.366 25.478 79.5651 25.1942 79.6826C24.9104 79.8002 24.5982 79.8309 24.2969 79.771C23.9957 79.7111 23.7189 79.5632 23.5017 79.346C23.2845 79.1288 23.1366 78.8521 23.0767 78.5508C23.0168 78.2496 23.0475 77.9373 23.1651 77.6535C23.2826 77.3697 23.4817 77.1272 23.7371 76.9566C23.9925 76.7859 24.2927 76.6948 24.5999 76.6948C25.0118 76.6948 25.4068 76.8584 25.698 77.1497C25.9893 77.4409 26.1529 77.836 26.1529 78.2478Z" fill="#BDBCC5"/>
</g>
</svg>