<svg xmlns="http://www.w3.org/2000/svg" width="110" height="110" viewBox="0 0 110 110" fill="none">
<mask id="mask0" mask-type="alpha" maskUnits="userSpaceOnUse" x="0" y="0" width="110" height="110">
<rect width="110" height="110" fill="#C4C4C4"/>
</mask>
<g mask="url(#mask0)">
<path fill-rule="evenodd" clip-rule="evenodd" d="M53.4556 6.62246C64.1658 5.32089 73.6767 13.0404 82.248 19.6039C90.6278 26.0208 98.1292 33.6584 101.731 43.5895C105.418 53.7574 106.766 65.336 102.426 75.2419C98.2581 84.7539 88.3058 89.8032 79.2582 94.879C71.2201 99.3885 62.6534 102.188 53.4556 102.715C43.7545 103.27 33.2796 103.681 25.4167 97.9624C17.5529 92.2427 15.4884 81.8923 12.2222 72.7236C8.84616 63.2468 2.69993 53.3547 6.16072 43.9087C9.60325 34.5124 21.4759 32.2252 29.3276 26.0351C37.6372 19.484 42.9582 7.89816 53.4556 6.62246Z" fill="#E9E8EB" stroke="#D4D3D9"/>
<mask id="mask1" mask-type="alpha" maskUnits="userSpaceOnUse" x="4" y="5" width="102" height="99">
<path fill-rule="evenodd" clip-rule="evenodd" d="M53.4556 6.62246C64.1658 5.32089 73.6767 13.0404 82.248 19.6039C90.6278 26.0208 98.1292 33.6584 101.731 43.5895C105.418 53.7574 106.766 65.336 102.426 75.2419C98.2581 84.7539 88.3058 89.8032 79.2582 94.879C71.2201 99.3885 62.6534 102.188 53.4556 102.715C43.7545 103.27 33.2796 103.681 25.4167 97.9624C17.5529 92.2427 15.4884 81.8923 12.2222 72.7236C8.84616 63.2468 2.69993 53.3547 6.16072 43.9087C9.60325 34.5124 21.4759 32.2252 29.3276 26.0351C37.6372 19.484 42.9582 7.89816 53.4556 6.62246Z" fill="#E9E8EB" stroke="#D4D3D9"/>
</mask>
<g mask="url(#mask1)">
<ellipse cx="51.1367" cy="89.9775" rx="50" ry="3.5" fill="#D4D3D9"/>
</g>
<path d="M86.1367 6.47754H19.1367V73.4775H86.1367V6.47754Z" fill="#92909F"/>
<path d="M65.1367 33.9775C65.1367 36.4501 64.4034 38.8671 63.0296 40.9229C61.6558 42.9787 59.7031 44.5808 57.4186 45.5267C55.1342 46.4726 52.6205 46.7197 50.1955 46.2368C47.7706 45.754 45.5433 44.5627 43.7954 42.8139C42.0475 41.065 40.8576 38.8371 40.376 36.4119C39.8945 33.9866 40.1431 31.4731 41.0903 29.1891C42.0374 26.9052 43.6407 24.9534 45.6972 23.5807C47.7538 22.2081 50.1712 21.4761 52.6438 21.4775C54.285 21.4775 55.9101 21.8009 57.4262 22.4292C58.9424 23.0575 60.3199 23.9783 61.4801 25.1391C62.6403 26.3 63.5604 27.678 64.1878 29.1945C64.8152 30.7111 65.1376 32.3364 65.1367 33.9775Z" fill="#D4D3D9"/>
<path d="M74.1367 68.8669V73.4775H31.1367V68.8669C31.1367 62.9289 33.4019 57.2341 37.4339 53.0352C41.466 48.8364 46.9346 46.4775 52.6367 46.4775C58.3389 46.4775 63.8075 48.8364 67.8395 53.0352C71.8715 57.2341 74.1367 62.9289 74.1367 68.8669Z" fill="#D4D3D9"/>
<path d="M89.9716 73.4562C95.0337 68.3941 95.0337 60.1869 89.9716 55.1249C84.9096 50.0628 76.7024 50.0628 71.6403 55.1248C66.5782 60.1869 66.5782 68.3941 71.6403 73.4562C76.7023 78.5183 84.9096 78.5182 89.9716 73.4562Z" fill="#BDBCC5"/>
</g>
</svg>