<svg xmlns="http://www.w3.org/2000/svg" width="110" height="110" viewBox="0 0 110 110" fill="none">
<mask id="mask0" mask-type="alpha" maskUnits="userSpaceOnUse" x="0" y="0" width="110" height="110">
<rect width="110" height="110" fill="#C4C4C4"/>
</mask>
<g mask="url(#mask0)">
<path fill-rule="evenodd" clip-rule="evenodd" d="M68.5336 102.524C59.3791 105.224 49.812 104.408 40.6012 101.874C30.4966 99.095 19.9757 95.6934 13.5373 87.3971C6.82404 78.7466 3.42924 67.1918 5.31571 56.4068C7.11052 46.1459 17.1092 40.2057 23.2591 31.8175C29.8366 22.846 32.098 9.32966 42.5636 5.60232C53.0947 1.85162 64.3933 8.42973 74.3053 13.6372C83.2447 18.3337 90.6286 25.1548 96.0417 33.6981C101.408 42.1673 105.691 51.7382 104.772 61.721C103.872 71.4966 97.6435 79.6449 91.1377 86.9702C84.9078 93.9849 77.5228 99.8728 68.5336 102.524Z" fill="#E9E8EB" stroke="#D4D3D9"/>
<mask id="mask1" mask-type="alpha" maskUnits="userSpaceOnUse" x="-9" y="-8" width="125" height="125">
<path fill-rule="evenodd" clip-rule="evenodd" d="M68.5336 102.524C59.3791 105.224 49.812 104.408 40.6012 101.874C30.4966 99.095 19.9757 95.6934 13.5373 87.3971C6.82404 78.7466 3.42924 67.1918 5.31571 56.4068C7.11052 46.1459 17.1092 40.2057 23.2591 31.8175C29.8366 22.846 32.098 9.32966 42.5636 5.60232C53.0947 1.85162 64.3933 8.42973 74.3053 13.6372C83.2447 18.3337 90.6286 25.1548 96.0417 33.6981C101.408 42.1673 105.691 51.7382 104.772 61.721C103.872 71.4966 97.6435 79.6449 91.1377 86.9702C84.9078 93.9849 77.5228 99.8728 68.5336 102.524Z" fill="#E9E8EB" stroke="#D4D3D9"/>
</mask>
<g mask="url(#mask1)">
<ellipse cx="53.1367" cy="87.478" rx="50" ry="4" fill="#D4D3D9"/>
</g>
<path d="M71.608 14.2876H16.8691V86.4237H71.608V14.2876Z" fill="#BDBCC5"/>
<path d="M74.2565 11.4775H14.2168V14.2875H74.2565V11.4775Z" fill="#92909F"/>
<path d="M93.1365 11.4775H74.2559V14.2875H93.1365V11.4775Z" fill="#BDBCC5"/>
<path d="M90.1522 14.2876H71.6074V86.4237H90.1522V14.2876Z" fill="#92909F"/>
<path d="M65.646 25.1411H22.8301V49.2779H65.646V25.1411Z" fill="#676378"/>
<path d="M61.4776 18.9614H28.8828V42.5888H61.4776V18.9614Z" fill="#92909F"/>
<path d="M40.3971 16.5098H28.8828V18.9615H41.0631L40.3971 16.5098Z" fill="#92909F"/>
<path d="M61.3877 42.5836H28.7985L26.2852 20.9209H58.8743L61.3877 42.5836Z" fill="#676378"/>
<path d="M37.5357 18.6763H26.0215L26.2846 20.9209H38.4593L37.5357 18.6763Z" fill="#676378"/>
<path d="M45.0191 25.1411H2.20312V49.2779H45.0191V25.1411Z" fill="#BDBCC5"/>
<path d="M45.087 49.3787H2.13672V25.0684H45.087V49.3787ZM2.27666 49.2387H44.9471V25.2083H2.27666V49.2387Z" fill="#92909F"/>
<path d="M25.9819 32.1665H17.6191V36.9748H25.9819V32.1665Z" fill="#92909F"/>
<path d="M28.5186 36.6837H20.0215V32.4575H28.5186V36.6837ZM20.1614 36.5438H28.3787V32.5863H20.1614V36.5438Z" fill="#92909F"/>
<path d="M65.6477 28.7573H45.127V49.2781H65.6477V28.7573Z" fill="#92909F"/>
<path d="M65.7137 79.8463H22.7578V55.564H65.7137V79.8463ZM22.8978 79.7064H65.5682V55.7039H22.8978V79.7064Z" fill="#92909F"/>
<path d="M46.603 62.6621H38.2402V67.4704H46.603V62.6621Z" fill="#92909F"/>
<path d="M49.1456 67.1793H40.6484V62.9531H49.1456V67.1793ZM40.7884 67.0394H49.0056V63.0931H40.7884V67.0394Z" fill="#92909F"/>
</g>
</svg>