<svg width="64" height="64" viewBox="0 0 64 64" fill="none" xmlns="http://www.w3.org/2000/svg">
<g clip-path="url(#clip0)">
<path d="M64.0002 23.8233V60.0162H15.3331C14.518 60.0162 13.8586 59.3555 13.8586 58.5417V18.8373C13.8586 18.0222 14.518 17.3628 15.3331 17.3628H33.2145C33.6047 17.3628 33.9794 17.5173 34.2563 17.7942L38.3795 21.9174C38.6564 22.1943 39.0312 22.3488 39.4225 22.3488H62.5257C63.3396 22.3489 64.0002 23.0095 64.0002 23.8233Z" fill="#756F6F"/>
<path d="M40.5082 29.5377C42.4933 29.5377 44.1026 27.9285 44.1026 25.9434C44.1026 23.9583 42.4933 22.349 40.5082 22.349C38.5231 22.349 36.9138 23.9583 36.9138 25.9434C36.9138 27.9285 38.5231 29.5377 40.5082 29.5377Z" fill="#5B5555"/>
<path d="M27.314 34.4278C27.963 35.0756 27.5046 36.1856 26.5865 36.1856H15.2365C14.7716 36.1856 14.3119 36.1623 13.8586 36.1186V18.8373C13.8586 18.0222 14.518 17.3628 15.3331 17.3628H28.1473C28.7448 18.9093 29.0731 20.5912 29.0731 22.3489C29.0731 26.1697 27.524 29.6284 25.0206 32.1331L27.314 34.4278Z" fill="#5B5555"/>
<path d="M63.9999 23.8233V60.0161H59.1039V23.8233C59.1039 23.0094 58.4445 22.3488 57.6294 22.3488H62.5253C63.3393 22.3489 63.9999 23.0095 63.9999 23.8233Z" fill="#5B5555"/>
<path d="M48.9624 41.5272L64.0001 60.0167H14.5592C14.1154 60.0167 13.6954 59.8168 13.4154 59.4725L0.33332 43.3875C-0.45018 42.4242 0.23532 40.983 1.47707 40.983H47.8186C48.2624 40.983 48.6826 41.1829 48.9624 41.5272Z" fill="#64B9FC"/>
<path d="M64 60.0162H57.6593L42.6225 41.5271C42.3418 41.1832 41.922 40.9823 41.479 40.9823H47.8185C48.2628 40.9823 48.6825 41.1832 48.962 41.5271L64 60.0162Z" fill="#31A7FB"/>
<path d="M52.8033 55.6797H39.7949C39.3928 55.6797 39.0138 55.4918 38.7702 55.1718L35.4364 50.7914C35.1138 50.3676 35.4162 49.7577 35.9488 49.7577H48.9572C49.3593 49.7577 49.7383 49.9456 49.9819 50.2656L53.3156 54.6459C53.6383 55.0697 53.336 55.6797 52.8033 55.6797Z" fill="#F8F3F1"/>
<path d="M52.8032 55.6793H48.6181C49.1512 55.6793 49.4538 55.0702 49.1306 54.6453L45.7967 50.2658C45.5533 49.9452 45.1747 49.7572 44.7729 49.7572H48.9568C49.3598 49.7572 49.7384 49.9452 49.9818 50.2658L53.3157 54.6453C53.6376 55.0703 53.3363 55.6793 52.8032 55.6793Z" fill="#EFE2DD"/>
<path d="M32 56.6452H26.091C25.5576 56.6452 25.1252 56.2129 25.1252 55.6795C25.1252 55.1461 25.5576 54.7137 26.091 54.7137H32C32.5334 54.7137 32.9658 55.1461 32.9658 55.6795C32.9658 56.2129 32.5334 56.6452 32 56.6452Z" fill="#F8F3F1"/>
<path d="M29.8437 53.4419H27.3356C26.8022 53.4419 26.3699 53.0095 26.3699 52.4761C26.3699 51.9427 26.8022 51.5104 27.3356 51.5104H29.8437C30.3771 51.5104 30.8095 51.9427 30.8095 52.4761C30.8096 53.0095 30.3772 53.4419 29.8437 53.4419Z" fill="#F8F3F1"/>
<path d="M29.0729 17.82C29.0729 10.1783 22.878 3.9834 15.2364 3.9834C7.60179 3.9834 1.39966 10.1855 1.39966 17.8201C1.39978 25.4619 7.59454 31.6566 15.2363 31.6566H26.5863C27.5039 31.6566 27.9635 30.5471 27.3147 29.8983L25.0203 27.6039C27.5243 25.1001 29.0729 21.6409 29.0729 17.82Z" fill="#31A7FB"/>
<path d="M27.3141 29.8988C27.9631 30.5478 27.5047 31.6566 26.5866 31.6566H21.9198C22.8367 31.6566 23.2964 30.5478 22.6473 29.8988L21.2246 28.4753C20.7513 28.0018 20.7213 27.2461 21.1528 26.7342C23.1826 24.3267 24.4063 21.2157 24.4063 17.82C24.4063 10.9745 19.4344 5.28909 12.9043 4.18034C13.5362 4.07197 14.1824 4.00747 14.84 3.98884C22.5782 3.77084 28.9423 9.84409 29.0711 17.5842C29.1362 21.4981 27.5752 25.0492 25.0206 27.604L27.3141 29.8988Z" fill="#1C96F9"/>
<path d="M17.968 17.8203L20.5419 15.2464C21.2963 14.492 21.2963 13.269 20.5419 12.5148C19.7876 11.7604 18.5645 11.7604 17.8103 12.5148L15.2364 15.0886L12.6626 12.5146C11.9084 11.7603 10.6853 11.7603 9.93102 12.5146C9.17664 13.2689 9.17664 14.4919 9.93102 15.2463L12.5049 17.8201L9.93102 20.394C9.17664 21.1484 9.17664 22.3714 9.93102 23.1256C10.3081 23.5029 10.8025 23.6914 11.2969 23.6914C11.7913 23.6914 12.2855 23.5028 12.6628 23.1256L15.2366 20.5518L17.8105 23.1256C18.1878 23.5029 18.6819 23.6914 19.1764 23.6914C19.6706 23.6914 20.165 23.5028 20.5423 23.1256C21.2966 22.3714 21.2966 21.1484 20.5423 20.394L17.968 17.8203Z" fill="#F8F3F1"/>
<path d="M40.5082 26.4951C42.4933 26.4951 44.1026 24.8859 44.1026 22.9008C44.1026 20.9157 42.4933 19.3064 40.5082 19.3064C38.5231 19.3064 36.9138 20.9157 36.9138 22.9008C36.9138 24.8859 38.5231 26.4951 40.5082 26.4951Z" fill="#BCEA73"/>
<path d="M44.1023 22.9004C44.1023 24.8863 42.4926 26.496 40.5083 26.496C39.8431 26.496 39.2189 26.3153 38.6851 25.9983C40.0961 25.673 41.1473 24.4099 41.1473 22.9004C41.1473 21.3925 40.0977 20.1278 38.6867 19.8025C39.2206 19.4871 39.8431 19.3065 40.5083 19.3065C42.4927 19.3064 44.1023 20.9161 44.1023 22.9004Z" fill="#99D53B"/>
<path d="M53.0963 18.5909C54.6628 18.5909 55.9328 17.321 55.9328 15.7545C55.9328 14.1879 54.6628 12.918 53.0963 12.918C51.5297 12.918 50.2598 14.1879 50.2598 15.7545C50.2598 17.321 51.5297 18.5909 53.0963 18.5909Z" fill="#BCEA73"/>
<path d="M55.9325 15.7542C55.9325 17.3213 54.6622 18.5916 53.0963 18.5916C52.5713 18.5916 52.0788 18.4489 51.6575 18.1988C52.771 17.9422 53.6005 16.9453 53.6005 15.7542C53.6005 14.5642 52.7722 13.5662 51.6587 13.3095C52.08 13.0606 52.5712 12.918 53.0962 12.918C54.6622 12.918 55.9325 14.1883 55.9325 15.7542Z" fill="#99D53B"/>
<path d="M46.6151 10.5699L47.1376 10.0474C47.5148 9.67012 47.5148 9.05875 47.1376 8.6815C46.7604 8.30437 46.1489 8.30437 45.7717 8.6815L45.2492 9.204L44.7267 8.6815C44.3496 8.30425 43.7381 8.30425 43.3608 8.6815C42.9836 9.05862 42.9836 9.67012 43.3608 10.0474L43.8833 10.5699L43.3608 11.0924C42.9836 11.4696 42.9836 12.081 43.3608 12.4583C43.5494 12.6469 43.7966 12.7411 44.0437 12.7411C44.2908 12.7411 44.5381 12.6468 44.7266 12.4583L45.2491 11.9358L45.7716 12.4583C45.9602 12.6469 46.2073 12.7411 46.4544 12.7411C46.7016 12.7411 46.9488 12.6468 47.1373 12.4583C47.5146 12.0811 47.5146 11.4696 47.1373 11.0924L46.6151 10.5699Z" fill="#64B9FC"/>
<path d="M7.2314 32.4955C6.85428 32.1184 6.24278 32.1184 5.86553 32.4955L4.95578 33.4052L4.04603 32.4955C3.6689 32.1184 3.0574 32.1184 2.68015 32.4955C2.3029 32.8726 2.3029 33.4841 2.68015 33.8614L3.5899 34.7711L2.68015 35.6809C2.3029 36.058 2.3029 36.6695 2.68015 37.0467C2.86878 37.2354 3.1159 37.3296 3.36303 37.3296C3.61015 37.3296 3.8574 37.2352 4.0459 37.0467L4.95565 36.137L5.8654 37.0467C6.05403 37.2354 6.30115 37.3296 6.54828 37.3296C6.7954 37.3296 7.04265 37.2352 7.23115 37.0467C7.6084 36.6696 7.6084 36.0581 7.23115 35.6809L6.3214 34.7711L7.23115 33.8614C7.60853 33.4841 7.60853 32.8726 7.2314 32.4955Z" fill="#A8E7EF"/>
</g>
<defs>
<clipPath id="clip0">
<rect width="64" height="64" fill="white"/>
</clipPath>
</defs>
</svg>
