<svg width="117" height="24" viewBox="0 0 117 24" fill="none" xmlns="http://www.w3.org/2000/svg">
<path d="M35.9358 6.66234C37.2886 6.66234 38.4944 7.00546 39.5532 7.69169C40.6316 8.35831 41.4746 9.32883 42.0824 10.6033C42.7099 11.8581 43.0236 13.3482 43.0236 15.0736C43.0236 16.7793 42.7099 18.2694 42.0824 19.5438C41.4746 20.8183 40.6316 21.7986 39.5532 22.4848C38.4944 23.1515 37.2886 23.4848 35.9358 23.4848C34.681 23.4848 33.6026 23.2005 32.7007 22.6319C31.7988 22.0633 31.142 21.2888 30.7303 20.3085V23.2789H25.7012V1.51562H30.7303V9.8386C31.142 8.85828 31.7988 8.08382 32.7007 7.51523C33.6026 6.94664 34.681 6.66234 35.9358 6.66234ZM34.3183 11.0738C33.2595 11.0738 32.387 11.4365 31.7008 12.162C31.0342 12.8678 30.7008 13.8383 30.7008 15.0736C30.7008 16.2892 31.0342 17.2597 31.7008 17.9851C32.387 18.7106 33.2595 19.0733 34.3183 19.0733C35.3966 19.0733 36.2593 18.7204 36.9063 18.0145C37.5729 17.3087 37.9062 16.3284 37.9062 15.0736C37.9062 13.8187 37.5729 12.8384 36.9063 12.1326C36.2593 11.4267 35.3966 11.0738 34.3183 11.0738Z" fill="#26213F"/>
<path d="M49.1918 1.51562V23.2789H44.1627V1.51562H49.1918Z" fill="#26213F"/>
<path d="M57.4284 6.66234C58.6832 6.66234 59.7616 6.94664 60.6635 7.51523C61.5654 8.08382 62.232 8.85828 62.6633 9.8386V6.86821H67.663V23.2789H62.6633V20.3085C62.232 21.2888 61.5654 22.0633 60.6635 22.6319C59.7616 23.2005 58.6832 23.4848 57.4284 23.4848C56.0755 23.4848 54.8599 23.1515 53.7816 22.4848C52.7228 21.7986 51.8797 20.8183 51.2523 19.5438C50.6445 18.2694 50.3406 16.7793 50.3406 15.0736C50.3406 13.3482 50.6445 11.8581 51.2523 10.6033C51.8797 9.32883 52.7228 8.35831 53.7816 7.69169C54.8599 7.00546 56.0755 6.66234 57.4284 6.66234ZM59.0459 11.0738C57.9676 11.0738 57.0951 11.4267 56.4285 12.1326C55.7814 12.8384 55.4579 13.8187 55.4579 15.0736C55.4579 16.3284 55.7814 17.3087 56.4285 18.0145C57.0951 18.7204 57.9676 19.0733 59.0459 19.0733C60.1047 19.0733 60.9674 18.7106 61.634 17.9851C62.3202 17.2597 62.6633 16.2892 62.6633 15.0736C62.6633 13.8383 62.3202 12.8678 61.634 12.162C60.9674 11.4365 60.1047 11.0738 59.0459 11.0738Z" fill="#26213F"/>
<path d="M74.096 19.0733H81.6837V23.2789H68.5963V19.3086L75.6547 11.0444H68.714V6.86821H81.3896V10.8385L74.096 19.0733Z" fill="#26213F"/>
<path d="M90.2783 6.66234C91.9056 6.66234 93.3565 7.00546 94.6309 7.69169C95.9249 8.35831 96.9347 9.32883 97.6601 10.6033C98.4052 11.8777 98.7777 13.3678 98.7777 15.0736C98.7777 16.7793 98.4052 18.2694 97.6601 19.5438C96.9347 20.8183 95.9249 21.7986 94.6309 22.4848C93.3565 23.1515 91.9056 23.4848 90.2783 23.4848C88.6509 23.4848 87.1902 23.1515 85.8962 22.4848C84.6022 21.7986 83.5826 20.8183 82.8376 19.5438C82.1121 18.2694 81.7494 16.7793 81.7494 15.0736C81.7494 13.3678 82.1121 11.8777 82.8376 10.6033C83.5826 9.32883 84.6022 8.35831 85.8962 7.69169C87.1902 7.00546 88.6509 6.66234 90.2783 6.66234ZM90.2783 11.015C89.3175 11.015 88.5039 11.3679 87.8372 12.0738C87.1902 12.76 86.8667 13.7599 86.8667 15.0736C86.8667 16.3872 87.1902 17.3871 87.8372 18.0734C88.5039 18.7596 89.3175 19.1027 90.2783 19.1027C91.239 19.1027 92.0428 18.7596 92.6899 18.0734C93.3369 17.3871 93.6604 16.3872 93.6604 15.0736C93.6604 13.7599 93.3369 12.76 92.6899 12.0738C92.0428 11.3679 91.239 11.015 90.2783 11.015Z" fill="#26213F"/>
<path d="M110.326 6.69175C112.208 6.69175 113.698 7.31916 114.796 8.57398C115.914 9.8288 116.473 11.5542 116.473 13.7501V23.2789H111.444V14.3383C111.444 13.2403 111.15 12.3875 110.561 11.7797C109.993 11.1522 109.228 10.8385 108.267 10.8385C107.248 10.8385 106.434 11.162 105.826 11.8091C105.238 12.4561 104.944 13.3776 104.944 14.5736V23.2789H99.915V6.86821H104.944V9.86801C105.415 8.88769 106.111 8.11323 107.032 7.54464C107.973 6.97605 109.071 6.69175 110.326 6.69175Z" fill="#26213F"/>
<ellipse cx="9.58581" cy="14.8964" rx="7.18958" ry="7.18958" transform="rotate(-180 9.58581 14.8964)" fill="#006AC6"/>
<ellipse cx="3.59466" cy="4.11224" rx="3.59479" ry="3.59479" transform="rotate(-180 3.59466 4.11224)" fill="#00B373"/>
</svg>
